<?xml version="1.0" encoding="UTF-8" standalone="no"?>
<!DOCTYPE svg PUBLIC "-//W3C//DTD SVG 1.1//EN"
 "http://www.w3.org/Graphics/SVG/1.1/DTD/svg11.dtd">
<!-- Generated by graphviz version 2.26.3 (20100126.1600)
 -->
<!-- Title: G Pages: 1 -->
<svg width="1276pt" height="1596pt"
 viewBox="0.00 0.00 1276.00 1596.00" xmlns="http://www.w3.org/2000/svg" xmlns:xlink="http://www.w3.org/1999/xlink">
<g id="graph1" class="graph" transform="scale(1 1) rotate(0) translate(4 1592)">
<title>G</title>
<polygon fill="white" stroke="white" points="-4,5 -4,-1592 1273,-1592 1273,5 -4,5"/>
<g id="graph2" class="cluster"><title>cluster_ChillDev</title>
<polyline fill="none" stroke="gray" points="1002,-8 1248,-8 "/>
<path fill="none" stroke="gray" d="M1248,-8C1254,-8 1260,-14 1260,-20"/>
<polyline fill="none" stroke="gray" points="1260,-20 1260,-1568 "/>
<path fill="none" stroke="gray" d="M1260,-1568C1260,-1574 1254,-1580 1248,-1580"/>
<polyline fill="none" stroke="gray" points="1248,-1580 1002,-1580 "/>
<path fill="none" stroke="gray" d="M1002,-1580C996,-1580 990,-1574 990,-1568"/>
<polyline fill="none" stroke="gray" points="990,-1568 990,-20 "/>
<path fill="none" stroke="gray" d="M990,-20C990,-14 996,-8 1002,-8"/>
<text text-anchor="middle" x="1125" y="-1566.1" font-family="Times Roman,serif" font-size="11.00" fill="gray">ChillDev</text>
</g>
<g id="graph3" class="cluster"><title>cluster_ChillDev\Bundle</title>
<polyline fill="none" stroke="gray" points="1010,-16 1240,-16 "/>
<path fill="none" stroke="gray" d="M1240,-16C1246,-16 1252,-22 1252,-28"/>
<polyline fill="none" stroke="gray" points="1252,-28 1252,-1538 "/>
<path fill="none" stroke="gray" d="M1252,-1538C1252,-1544 1246,-1550 1240,-1550"/>
<polyline fill="none" stroke="gray" points="1240,-1550 1010,-1550 "/>
<path fill="none" stroke="gray" d="M1010,-1550C1004,-1550 998,-1544 998,-1538"/>
<polyline fill="none" stroke="gray" points="998,-1538 998,-28 "/>
<path fill="none" stroke="gray" d="M998,-28C998,-22 1004,-16 1010,-16"/>
<text text-anchor="middle" x="1125" y="-1536.1" font-family="Times Roman,serif" font-size="11.00" fill="gray">Bundle</text>
</g>
<g id="graph4" class="cluster"><title>cluster_ChillDev\Bundle\FileManagerBundle</title>
<polyline fill="none" stroke="gray" points="1018,-24 1232,-24 "/>
<path fill="none" stroke="gray" d="M1232,-24C1238,-24 1244,-30 1244,-36"/>
<polyline fill="none" stroke="gray" points="1244,-36 1244,-1508 "/>
<path fill="none" stroke="gray" d="M1244,-1508C1244,-1514 1238,-1520 1232,-1520"/>
<polyline fill="none" stroke="gray" points="1232,-1520 1018,-1520 "/>
<path fill="none" stroke="gray" d="M1018,-1520C1012,-1520 1006,-1514 1006,-1508"/>
<polyline fill="none" stroke="gray" points="1006,-1508 1006,-36 "/>
<path fill="none" stroke="gray" d="M1006,-36C1006,-30 1012,-24 1018,-24"/>
<text text-anchor="middle" x="1125" y="-1506.1" font-family="Times Roman,serif" font-size="11.00" fill="gray">FileManagerBundle</text>
</g>
<g id="graph5" class="cluster"><title>cluster_ChillDev\Bundle\FileManagerBundle\Controller</title>
<polyline fill="none" stroke="gray" points="1070,-1362 1180,-1362 "/>
<path fill="none" stroke="gray" d="M1180,-1362C1186,-1362 1192,-1368 1192,-1374"/>
<polyline fill="none" stroke="gray" points="1192,-1374 1192,-1478 "/>
<path fill="none" stroke="gray" d="M1192,-1478C1192,-1484 1186,-1490 1180,-1490"/>
<polyline fill="none" stroke="gray" points="1180,-1490 1070,-1490 "/>
<path fill="none" stroke="gray" d="M1070,-1490C1064,-1490 1058,-1484 1058,-1478"/>
<polyline fill="none" stroke="gray" points="1058,-1478 1058,-1374 "/>
<path fill="none" stroke="gray" d="M1058,-1374C1058,-1368 1064,-1362 1070,-1362"/>
<text text-anchor="middle" x="1125" y="-1476.1" font-family="Times Roman,serif" font-size="11.00" fill="gray">Controller</text>
</g>
<g id="graph6" class="cluster"><title>cluster_ChillDev\Bundle\FileManagerBundle\DependencyInjection</title>
<polyline fill="none" stroke="gray" points="1026,-1226 1224,-1226 "/>
<path fill="none" stroke="gray" d="M1224,-1226C1230,-1226 1236,-1232 1236,-1238"/>
<polyline fill="none" stroke="gray" points="1236,-1238 1236,-1342 "/>
<path fill="none" stroke="gray" d="M1236,-1342C1236,-1348 1230,-1354 1224,-1354"/>
<polyline fill="none" stroke="gray" points="1224,-1354 1026,-1354 "/>
<path fill="none" stroke="gray" d="M1026,-1354C1020,-1354 1014,-1348 1014,-1342"/>
<polyline fill="none" stroke="gray" points="1014,-1342 1014,-1238 "/>
<path fill="none" stroke="gray" d="M1014,-1238C1014,-1232 1020,-1226 1026,-1226"/>
<text text-anchor="middle" x="1125" y="-1340.1" font-family="Times Roman,serif" font-size="11.00" fill="gray">DependencyInjection</text>
</g>
<g id="graph7" class="cluster"><title>cluster_ChillDev\Bundle\FileManagerBundle\Filesystem</title>
<polyline fill="none" stroke="gray" points="1087,-1036 1163,-1036 "/>
<path fill="none" stroke="gray" d="M1163,-1036C1169,-1036 1175,-1042 1175,-1048"/>
<polyline fill="none" stroke="gray" points="1175,-1048 1175,-1206 "/>
<path fill="none" stroke="gray" d="M1175,-1206C1175,-1212 1169,-1218 1163,-1218"/>
<polyline fill="none" stroke="gray" points="1163,-1218 1087,-1218 "/>
<path fill="none" stroke="gray" d="M1087,-1218C1081,-1218 1075,-1212 1075,-1206"/>
<polyline fill="none" stroke="gray" points="1075,-1206 1075,-1048 "/>
<path fill="none" stroke="gray" d="M1075,-1048C1075,-1042 1081,-1036 1087,-1036"/>
<text text-anchor="middle" x="1125" y="-1204.1" font-family="Times Roman,serif" font-size="11.00" fill="gray">Filesystem</text>
</g>
<g id="graph8" class="cluster"><title>cluster_ChillDev\Bundle\FileManagerBundle\Form</title>
<polyline fill="none" stroke="gray" points="1045,-726 1205,-726 "/>
<path fill="none" stroke="gray" d="M1205,-726C1211,-726 1217,-732 1217,-738"/>
<polyline fill="none" stroke="gray" points="1217,-738 1217,-1016 "/>
<path fill="none" stroke="gray" d="M1217,-1016C1217,-1022 1211,-1028 1205,-1028"/>
<polyline fill="none" stroke="gray" points="1205,-1028 1045,-1028 "/>
<path fill="none" stroke="gray" d="M1045,-1028C1039,-1028 1033,-1022 1033,-1016"/>
<polyline fill="none" stroke="gray" points="1033,-1016 1033,-738 "/>
<path fill="none" stroke="gray" d="M1033,-738C1033,-732 1039,-726 1045,-726"/>
<text text-anchor="middle" x="1125" y="-1014.1" font-family="Times Roman,serif" font-size="11.00" fill="gray">Form</text>
</g>
<g id="graph9" class="cluster"><title>cluster_ChillDev\Bundle\FileManagerBundle\Form\EventListener</title>
<polyline fill="none" stroke="gray" points="1053,-924 1197,-924 "/>
<path fill="none" stroke="gray" d="M1197,-924C1203,-924 1209,-930 1209,-936"/>
<polyline fill="none" stroke="gray" points="1209,-936 1209,-986 "/>
<path fill="none" stroke="gray" d="M1209,-986C1209,-992 1203,-998 1197,-998"/>
<polyline fill="none" stroke="gray" points="1197,-998 1053,-998 "/>
<path fill="none" stroke="gray" d="M1053,-998C1047,-998 1041,-992 1041,-986"/>
<polyline fill="none" stroke="gray" points="1041,-986 1041,-936 "/>
<path fill="none" stroke="gray" d="M1041,-936C1041,-930 1047,-924 1053,-924"/>
<text text-anchor="middle" x="1125" y="-984.1" font-family="Times Roman,serif" font-size="11.00" fill="gray">EventListener</text>
</g>
<g id="graph10" class="cluster"><title>cluster_ChillDev\Bundle\FileManagerBundle\Form\Type</title>
<polyline fill="none" stroke="gray" points="1087,-734 1163,-734 "/>
<path fill="none" stroke="gray" d="M1163,-734C1169,-734 1175,-740 1175,-746"/>
<polyline fill="none" stroke="gray" points="1175,-746 1175,-904 "/>
<path fill="none" stroke="gray" d="M1175,-904C1175,-910 1169,-916 1163,-916"/>
<polyline fill="none" stroke="gray" points="1163,-916 1087,-916 "/>
<path fill="none" stroke="gray" d="M1087,-916C1081,-916 1075,-910 1075,-904"/>
<polyline fill="none" stroke="gray" points="1075,-904 1075,-746 "/>
<path fill="none" stroke="gray" d="M1075,-746C1075,-740 1081,-734 1087,-734"/>
<text text-anchor="middle" x="1125" y="-902.1" font-family="Times Roman,serif" font-size="11.00" fill="gray">Type</text>
</g>
<g id="graph13" class="cluster"><title>cluster_ChillDev\Bundle\FileManagerBundle\Request</title>
<polyline fill="none" stroke="gray" points="1052,-606 1198,-606 "/>
<path fill="none" stroke="gray" d="M1198,-606C1204,-606 1210,-612 1210,-618"/>
<polyline fill="none" stroke="gray" points="1210,-618 1210,-706 "/>
<path fill="none" stroke="gray" d="M1210,-706C1210,-712 1204,-718 1198,-718"/>
<polyline fill="none" stroke="gray" points="1198,-718 1052,-718 "/>
<path fill="none" stroke="gray" d="M1052,-718C1046,-718 1040,-712 1040,-706"/>
<polyline fill="none" stroke="gray" points="1040,-706 1040,-618 "/>
<path fill="none" stroke="gray" d="M1040,-618C1040,-612 1046,-606 1052,-606"/>
<text text-anchor="middle" x="1125" y="-704.1" font-family="Times Roman,serif" font-size="11.00" fill="gray">Request</text>
</g>
<g id="graph14" class="cluster"><title>cluster_ChillDev\Bundle\FileManagerBundle\Request\ParamConverter</title>
<polyline fill="none" stroke="gray" points="1060,-614 1190,-614 "/>
<path fill="none" stroke="gray" d="M1190,-614C1196,-614 1202,-620 1202,-626"/>
<polyline fill="none" stroke="gray" points="1202,-626 1202,-676 "/>
<path fill="none" stroke="gray" d="M1202,-676C1202,-682 1196,-688 1190,-688"/>
<polyline fill="none" stroke="gray" points="1190,-688 1060,-688 "/>
<path fill="none" stroke="gray" d="M1060,-688C1054,-688 1048,-682 1048,-676"/>
<polyline fill="none" stroke="gray" points="1048,-676 1048,-626 "/>
<path fill="none" stroke="gray" d="M1048,-626C1048,-620 1054,-614 1060,-614"/>
<text text-anchor="middle" x="1125" y="-674.1" font-family="Times Roman,serif" font-size="11.00" fill="gray">ParamConverter</text>
</g>
<g id="graph16" class="cluster"><title>cluster_ChillDev\Bundle\FileManagerBundle\Templating</title>
<polyline fill="none" stroke="gray" points="1080,-440 1170,-440 "/>
<path fill="none" stroke="gray" d="M1170,-440C1176,-440 1182,-446 1182,-452"/>
<polyline fill="none" stroke="gray" points="1182,-452 1182,-586 "/>
<path fill="none" stroke="gray" d="M1182,-586C1182,-592 1176,-598 1170,-598"/>
<polyline fill="none" stroke="gray" points="1170,-598 1080,-598 "/>
<path fill="none" stroke="gray" d="M1080,-598C1074,-598 1068,-592 1068,-586"/>
<polyline fill="none" stroke="gray" points="1068,-586 1068,-452 "/>
<path fill="none" stroke="gray" d="M1068,-452C1068,-446 1074,-440 1080,-440"/>
<text text-anchor="middle" x="1125" y="-584.1" font-family="Times Roman,serif" font-size="11.00" fill="gray">Templating</text>
</g>
<g id="graph17" class="cluster"><title>cluster_ChillDev\Bundle\FileManagerBundle\Templating\Helper</title>
<polyline fill="none" stroke="gray" points="1093,-494 1157,-494 "/>
<path fill="none" stroke="gray" d="M1157,-494C1163,-494 1169,-500 1169,-506"/>
<polyline fill="none" stroke="gray" points="1169,-506 1169,-556 "/>
<path fill="none" stroke="gray" d="M1169,-556C1169,-562 1163,-568 1157,-568"/>
<polyline fill="none" stroke="gray" points="1157,-568 1093,-568 "/>
<path fill="none" stroke="gray" d="M1093,-568C1087,-568 1081,-562 1081,-556"/>
<polyline fill="none" stroke="gray" points="1081,-556 1081,-506 "/>
<path fill="none" stroke="gray" d="M1081,-506C1081,-500 1087,-494 1093,-494"/>
<text text-anchor="middle" x="1125" y="-554.1" font-family="Times Roman,serif" font-size="11.00" fill="gray">Helper</text>
</g>
<g id="graph19" class="cluster"><title>cluster_ChillDev\Bundle\FileManagerBundle\Utils</title>
<polyline fill="none" stroke="gray" points="1087,-304 1163,-304 "/>
<path fill="none" stroke="gray" d="M1163,-304C1169,-304 1175,-310 1175,-316"/>
<polyline fill="none" stroke="gray" points="1175,-316 1175,-420 "/>
<path fill="none" stroke="gray" d="M1175,-420C1175,-426 1169,-432 1163,-432"/>
<polyline fill="none" stroke="gray" points="1163,-432 1087,-432 "/>
<path fill="none" stroke="gray" d="M1087,-432C1081,-432 1075,-426 1075,-420"/>
<polyline fill="none" stroke="gray" points="1075,-420 1075,-316 "/>
<path fill="none" stroke="gray" d="M1075,-316C1075,-310 1081,-304 1087,-304"/>
<text text-anchor="middle" x="1125" y="-418.1" font-family="Times Roman,serif" font-size="11.00" fill="gray">Utils</text>
</g>
<g id="graph20" class="cluster"><title>cluster_ChillDev\Bundle\FileManagerBundle\Validator</title>
<polyline fill="none" stroke="gray" points="1038,-76 1212,-76 "/>
<path fill="none" stroke="gray" d="M1212,-76C1218,-76 1224,-82 1224,-88"/>
<polyline fill="none" stroke="gray" points="1224,-88 1224,-284 "/>
<path fill="none" stroke="gray" d="M1224,-284C1224,-290 1218,-296 1212,-296"/>
<polyline fill="none" stroke="gray" points="1212,-296 1038,-296 "/>
<path fill="none" stroke="gray" d="M1038,-296C1032,-296 1026,-290 1026,-284"/>
<polyline fill="none" stroke="gray" points="1026,-284 1026,-88 "/>
<path fill="none" stroke="gray" d="M1026,-88C1026,-82 1032,-76 1038,-76"/>
<text text-anchor="middle" x="1125" y="-282.1" font-family="Times Roman,serif" font-size="11.00" fill="gray">Validator</text>
</g>
<g id="graph21" class="cluster"><title>cluster_ChillDev\Bundle\FileManagerBundle\Validator\Constraints</title>
<polyline fill="none" stroke="gray" points="1046,-84 1204,-84 "/>
<path fill="none" stroke="gray" d="M1204,-84C1210,-84 1216,-90 1216,-96"/>
<polyline fill="none" stroke="gray" points="1216,-96 1216,-254 "/>
<path fill="none" stroke="gray" d="M1216,-254C1216,-260 1210,-266 1204,-266"/>
<polyline fill="none" stroke="gray" points="1204,-266 1046,-266 "/>
<path fill="none" stroke="gray" d="M1046,-266C1040,-266 1034,-260 1034,-254"/>
<polyline fill="none" stroke="gray" points="1034,-254 1034,-96 "/>
<path fill="none" stroke="gray" d="M1034,-96C1034,-90 1040,-84 1046,-84"/>
<text text-anchor="middle" x="1125" y="-252.1" font-family="Times Roman,serif" font-size="11.00" fill="gray">Constraints</text>
</g>
<!-- \\ChillDev\\Bundle\\FileManagerBundle\\Controller\\FilesController -->
<g id="node5" class="node"><title>\\ChillDev\\Bundle\\FileManagerBundle\\Controller\\FilesController</title>
<a xlink:href="Controller.FilesController.html" xlink:title="FilesController" target="_parent">
<polygon fill="none" stroke="black" points="1184,-1460 1066,-1460 1066,-1424 1184,-1424 1184,-1460"/>
<text text-anchor="middle" x="1125" y="-1439.1" font-family="Courier,monospace" font-size="11.00">FilesController</text>
</a>
</g>
<!-- \\Symfony\\Bundle\\FrameworkBundle\\Controller\\Controller -->
<g id="node108" class="node"><title>\\Symfony\\Bundle\\FrameworkBundle\\Controller\\Controller</title>
<ellipse fill="none" stroke="black" cx="475" cy="-1415" rx="290.121" ry="18.3848"/>
<text text-anchor="middle" x="475" y="-1411.4" font-family="Times Roman,serif" font-size="14.00" fill="gray">\Symfony\Bundle\FrameworkBundle\Controller\Controller</text>
</g>
<!-- \\ChillDev\\Bundle\\FileManagerBundle\\Controller\\FilesController&#45;&gt;\\Symfony\\Bundle\\FrameworkBundle\\Controller\\Controller -->
<g id="edge88" class="edge"><title>\\ChillDev\\Bundle\\FileManagerBundle\\Controller\\FilesController&#45;&gt;\\Symfony\\Bundle\\FrameworkBundle\\Controller\\Controller</title>
<path fill="none" stroke="black" d="M1065.88,-1439.54C989.098,-1436.35 850.213,-1430.59 726.38,-1425.44"/>
<polygon fill="none" stroke="black" points="726.491,-1421.94 716.354,-1425.03 726.2,-1428.94 726.491,-1421.94"/>
</g>
<!-- \\ChillDev\\Bundle\\FileManagerBundle\\Controller\\DisksController -->
<g id="node6" class="node"><title>\\ChillDev\\Bundle\\FileManagerBundle\\Controller\\DisksController</title>
<a xlink:href="Controller.DisksController.html" xlink:title="DisksController" target="_parent">
<polygon fill="none" stroke="black" points="1184,-1406 1066,-1406 1066,-1370 1184,-1370 1184,-1406"/>
<text text-anchor="middle" x="1125" y="-1385.1" font-family="Courier,monospace" font-size="11.00">DisksController</text>
</a>
</g>
<!-- \\ChillDev\\Bundle\\FileManagerBundle\\Controller\\DisksController&#45;&gt;\\Symfony\\Bundle\\FrameworkBundle\\Controller\\Controller -->
<g id="edge90" class="edge"><title>\\ChillDev\\Bundle\\FileManagerBundle\\Controller\\DisksController&#45;&gt;\\Symfony\\Bundle\\FrameworkBundle\\Controller\\Controller</title>
<path fill="none" stroke="black" d="M1065.88,-1390.46C989.098,-1393.65 850.213,-1399.41 726.38,-1404.56"/>
<polygon fill="none" stroke="black" points="726.2,-1401.06 716.354,-1404.97 726.491,-1408.06 726.2,-1401.06"/>
</g>
<!-- \\ChillDev\\Bundle\\FileManagerBundle\\DependencyInjection\\ChillDevFileManagerExtension -->
<g id="node8" class="node"><title>\\ChillDev\\Bundle\\FileManagerBundle\\DependencyInjection\\ChillDevFileManagerExtension</title>
<a xlink:href="DependencyInjection.ChillDevFileManagerExtension.html" xlink:title="ChillDevFileManagerExtension" target="_parent">
<polygon fill="none" stroke="black" points="1228,-1324 1022,-1324 1022,-1288 1228,-1288 1228,-1324"/>
<text text-anchor="middle" x="1125" y="-1303.1" font-family="Courier,monospace" font-size="11.00">ChillDevFileManagerExtension</text>
</a>
</g>
<!-- \\Symfony\\Component\\HttpKernel\\DependencyInjection\\Extension -->
<g id="node98" class="node"><title>\\Symfony\\Component\\HttpKernel\\DependencyInjection\\Extension</title>
<ellipse fill="none" stroke="black" cx="475" cy="-1306" rx="329.012" ry="18.3848"/>
<text text-anchor="middle" x="475" y="-1302.4" font-family="Times Roman,serif" font-size="14.00" fill="gray">\Symfony\Component\HttpKernel\DependencyInjection\Extension</text>
</g>
<!-- \\ChillDev\\Bundle\\FileManagerBundle\\DependencyInjection\\ChillDevFileManagerExtension&#45;&gt;\\Symfony\\Component\\HttpKernel\\DependencyInjection\\Extension -->
<g id="edge78" class="edge"><title>\\ChillDev\\Bundle\\FileManagerBundle\\DependencyInjection\\ChillDevFileManagerExtension&#45;&gt;\\Symfony\\Component\\HttpKernel\\DependencyInjection\\Extension</title>
<path fill="none" stroke="black" d="M1021.65,-1306C964.655,-1306 890.295,-1306 814.865,-1306"/>
<polygon fill="none" stroke="black" points="814.7,-1302.5 804.7,-1306 814.7,-1309.5 814.7,-1302.5"/>
</g>
<!-- \\ChillDev\\Bundle\\FileManagerBundle\\DependencyInjection\\Configuration -->
<g id="node9" class="node"><title>\\ChillDev\\Bundle\\FileManagerBundle\\DependencyInjection\\Configuration</title>
<a xlink:href="DependencyInjection.Configuration.html" xlink:title="Configuration" target="_parent">
<polygon fill="none" stroke="black" points="1177,-1270 1073,-1270 1073,-1234 1177,-1234 1177,-1270"/>
<text text-anchor="middle" x="1125" y="-1249.1" font-family="Courier,monospace" font-size="11.00">Configuration</text>
</a>
</g>
<!-- \\Symfony\\Component\\Config\\Definition\\ConfigurationInterface -->
<g id="node119" class="node"><title>\\Symfony\\Component\\Config\\Definition\\ConfigurationInterface</title>
<ellipse fill="none" stroke="black" cx="475" cy="-1252" rx="330.219" ry="18.3848"/>
<text text-anchor="middle" x="475" y="-1248.4" font-family="Times Roman,serif" font-size="14.00" fill="gray">\\Symfony\\Component\\Config\\Definition\\ConfigurationInterface</text>
</g>
<!-- \\ChillDev\\Bundle\\FileManagerBundle\\DependencyInjection\\Configuration&#45;&gt;\\Symfony\\Component\\Config\\Definition\\ConfigurationInterface -->
<g id="edge102" class="edge"><title>\\ChillDev\\Bundle\\FileManagerBundle\\DependencyInjection\\Configuration&#45;&gt;\\Symfony\\Component\\Config\\Definition\\ConfigurationInterface</title>
<path fill="none" stroke="black" stroke-dasharray="1,5" d="M1072.91,-1252C1014.96,-1252 916.17,-1252 815.401,-1252"/>
<polygon fill="none" stroke="black" points="815.329,-1248.5 805.329,-1252 815.329,-1255.5 815.329,-1248.5"/>
</g>
<!-- \\ChillDev\\Bundle\\FileManagerBundle\\Filesystem\\Disk -->
<g id="node11" class="node"><title>\\ChillDev\\Bundle\\FileManagerBundle\\Filesystem\\Disk</title>
<a xlink:href="Filesystem.Disk.html" xlink:title="Disk" target="_parent">
<polygon fill="none" stroke="black" points="1152,-1188 1098,-1188 1098,-1152 1152,-1152 1152,-1188"/>
<text text-anchor="middle" x="1125" y="-1167.1" font-family="Courier,monospace" font-size="11.00">Disk</text>
</a>
</g>
<!-- \\ChillDev\\Bundle\\FileManagerBundle\\Filesystem\\Filesystem -->
<g id="node12" class="node"><title>\\ChillDev\\Bundle\\FileManagerBundle\\Filesystem\\Filesystem</title>
<a xlink:href="Filesystem.Filesystem.html" xlink:title="Filesystem" target="_parent">
<polygon fill="none" stroke="black" points="1167,-1134 1083,-1134 1083,-1098 1167,-1098 1167,-1134"/>
<text text-anchor="middle" x="1125" y="-1113.1" font-family="Courier,monospace" font-size="11.00">Filesystem</text>
</a>
</g>
<!-- \\ChillDev\\Bundle\\FileManagerBundle\\Filesystem\\Manager -->
<g id="node13" class="node"><title>\\ChillDev\\Bundle\\FileManagerBundle\\Filesystem\\Manager</title>
<a xlink:href="Filesystem.Manager.html" xlink:title="Manager" target="_parent">
<polygon fill="none" stroke="black" points="1157,-1080 1093,-1080 1093,-1044 1157,-1044 1157,-1080"/>
<text text-anchor="middle" x="1125" y="-1059.1" font-family="Courier,monospace" font-size="11.00">Manager</text>
</a>
</g>
<!-- \\ArrayObject -->
<g id="node106" class="node"><title>\\ArrayObject</title>
<ellipse fill="none" stroke="black" cx="475" cy="-1062" rx="73.0388" ry="18.3848"/>
<text text-anchor="middle" x="475" y="-1058.4" font-family="Times Roman,serif" font-size="14.00" fill="gray">\ArrayObject</text>
</g>
<!-- \\ChillDev\\Bundle\\FileManagerBundle\\Filesystem\\Manager&#45;&gt;\\ArrayObject -->
<g id="edge86" class="edge"><title>\\ChillDev\\Bundle\\FileManagerBundle\\Filesystem\\Manager&#45;&gt;\\ArrayObject</title>
<path fill="none" stroke="black" d="M1092.77,-1062C995.704,-1062 703.968,-1062 558.854,-1062"/>
<polygon fill="none" stroke="black" points="558.664,-1058.5 548.664,-1062 558.664,-1065.5 558.664,-1058.5"/>
</g>
<!-- \\ChillDev\\Bundle\\FileManagerBundle\\Form\\EventListener\\UploadNameSubscriber -->
<g id="node16" class="node"><title>\\ChillDev\\Bundle\\FileManagerBundle\\Form\\EventListener\\UploadNameSubscriber</title>
<a xlink:href="Form.EventListener.UploadNameSubscriber.html" xlink:title="UploadNameSubscriber" target="_parent">
<polygon fill="none" stroke="black" points="1201,-968 1049,-968 1049,-932 1201,-932 1201,-968"/>
<text text-anchor="middle" x="1125" y="-947.1" font-family="Courier,monospace" font-size="11.00">UploadNameSubscriber</text>
</a>
</g>
<!-- \\Symfony\\Component\\EventDispatcher\\EventSubscriberInterface -->
<g id="node127" class="node"><title>\\Symfony\\Component\\EventDispatcher\\EventSubscriberInterface</title>
<ellipse fill="none" stroke="black" cx="475" cy="-950" rx="340.118" ry="18.3848"/>
<text text-anchor="middle" x="475" y="-946.4" font-family="Times Roman,serif" font-size="14.00" fill="gray">\\Symfony\\Component\\EventDispatcher\\EventSubscriberInterface</text>
</g>
<!-- \\ChillDev\\Bundle\\FileManagerBundle\\Form\\EventListener\\UploadNameSubscriber&#45;&gt;\\Symfony\\Component\\EventDispatcher\\EventSubscriberInterface -->
<g id="edge110" class="edge"><title>\\ChillDev\\Bundle\\FileManagerBundle\\Form\\EventListener\\UploadNameSubscriber&#45;&gt;\\Symfony\\Component\\EventDispatcher\\EventSubscriberInterface</title>
<path fill="none" stroke="black" stroke-dasharray="1,5" d="M1048.85,-950C991.929,-950 909.661,-950 825.113,-950"/>
<polygon fill="none" stroke="black" points="825.061,-946.5 815.061,-950 825.061,-953.5 825.061,-946.5"/>
</g>
<!-- \\ChillDev\\Bundle\\FileManagerBundle\\Form\\Type\\RenameType -->
<g id="node18" class="node"><title>\\ChillDev\\Bundle\\FileManagerBundle\\Form\\Type\\RenameType</title>
<a xlink:href="Form.Type.RenameType.html" xlink:title="RenameType" target="_parent">
<polygon fill="none" stroke="black" points="1167,-886 1083,-886 1083,-850 1167,-850 1167,-886"/>
<text text-anchor="middle" x="1125" y="-865.1" font-family="Courier,monospace" font-size="11.00">RenameType</text>
</a>
</g>
<!-- \\Symfony\\Component\\Form\\AbstractType -->
<g id="node115" class="node"><title>\\Symfony\\Component\\Form\\AbstractType</title>
<ellipse fill="none" stroke="black" cx="475" cy="-814" rx="210.217" ry="18.3848"/>
<text text-anchor="middle" x="475" y="-810.4" font-family="Times Roman,serif" font-size="14.00" fill="gray">\Symfony\Component\Form\AbstractType</text>
</g>
<!-- \\ChillDev\\Bundle\\FileManagerBundle\\Form\\Type\\RenameType&#45;&gt;\\Symfony\\Component\\Form\\AbstractType -->
<g id="edge96" class="edge"><title>\\ChillDev\\Bundle\\FileManagerBundle\\Form\\Type\\RenameType&#45;&gt;\\Symfony\\Component\\Form\\AbstractType</title>
<path fill="none" stroke="black" d="M1082.85,-864.499C994.233,-857.136 784.563,-839.718 636.344,-827.404"/>
<polygon fill="none" stroke="black" points="636.482,-823.903 626.227,-826.563 635.902,-830.879 636.482,-823.903"/>
</g>
<!-- \\ChillDev\\Bundle\\FileManagerBundle\\Form\\Type\\UploadType -->
<g id="node19" class="node"><title>\\ChillDev\\Bundle\\FileManagerBundle\\Form\\Type\\UploadType</title>
<a xlink:href="Form.Type.UploadType.html" xlink:title="UploadType" target="_parent">
<polygon fill="none" stroke="black" points="1167,-832 1083,-832 1083,-796 1167,-796 1167,-832"/>
<text text-anchor="middle" x="1125" y="-811.1" font-family="Courier,monospace" font-size="11.00">UploadType</text>
</a>
</g>
<!-- \\ChillDev\\Bundle\\FileManagerBundle\\Form\\Type\\UploadType&#45;&gt;\\Symfony\\Component\\Form\\AbstractType -->
<g id="edge98" class="edge"><title>\\ChillDev\\Bundle\\FileManagerBundle\\Form\\Type\\UploadType&#45;&gt;\\Symfony\\Component\\Form\\AbstractType</title>
<path fill="none" stroke="black" d="M1082.85,-814C1005.52,-814 835.994,-814 695.573,-814"/>
<polygon fill="none" stroke="black" points="695.515,-810.5 685.515,-814 695.515,-817.5 695.515,-810.5"/>
</g>
<!-- \\ChillDev\\Bundle\\FileManagerBundle\\Form\\Type\\MkdirType -->
<g id="node20" class="node"><title>\\ChillDev\\Bundle\\FileManagerBundle\\Form\\Type\\MkdirType</title>
<a xlink:href="Form.Type.MkdirType.html" xlink:title="MkdirType" target="_parent">
<polygon fill="none" stroke="black" points="1163,-778 1087,-778 1087,-742 1163,-742 1163,-778"/>
<text text-anchor="middle" x="1125" y="-757.1" font-family="Courier,monospace" font-size="11.00">MkdirType</text>
</a>
</g>
<!-- \\ChillDev\\Bundle\\FileManagerBundle\\Form\\Type\\MkdirType&#45;&gt;\\Symfony\\Component\\Form\\AbstractType -->
<g id="edge100" class="edge"><title>\\ChillDev\\Bundle\\FileManagerBundle\\Form\\Type\\MkdirType&#45;&gt;\\Symfony\\Component\\Form\\AbstractType</title>
<path fill="none" stroke="black" d="M1086.29,-763.216C999.791,-770.402 786.668,-788.108 636.508,-800.582"/>
<polygon fill="none" stroke="black" points="635.935,-797.118 626.259,-801.434 636.514,-804.094 635.935,-797.118"/>
</g>
<!-- \\ChillDev\\Bundle\\FileManagerBundle\\Request\\ParamConverter\\DiskParamConverter -->
<g id="node25" class="node"><title>\\ChillDev\\Bundle\\FileManagerBundle\\Request\\ParamConverter\\DiskParamConverter</title>
<a xlink:href="Request.ParamConverter.DiskParamConverter.html" xlink:title="DiskParamConverter" target="_parent">
<polygon fill="none" stroke="black" points="1194,-658 1056,-658 1056,-622 1194,-622 1194,-658"/>
<text text-anchor="middle" x="1125" y="-637.1" font-family="Courier,monospace" font-size="11.00">DiskParamConverter</text>
</a>
</g>
<!-- \\Sensio\\Bundle\\FrameworkExtraBundle\\Request\\ParamConverter\\ParamConverterInterface -->
<g id="node125" class="node"><title>\\Sensio\\Bundle\\FrameworkExtraBundle\\Request\\ParamConverter\\ParamConverterInterface</title>
<ellipse fill="none" stroke="black" cx="475" cy="-640" rx="473.969" ry="18.3848"/>
<text text-anchor="middle" x="475" y="-636.4" font-family="Times Roman,serif" font-size="14.00" fill="gray">\\Sensio\\Bundle\\FrameworkExtraBundle\\Request\\ParamConverter\\ParamConverterInterface</text>
</g>
<!-- \\ChillDev\\Bundle\\FileManagerBundle\\Request\\ParamConverter\\DiskParamConverter&#45;&gt;\\Sensio\\Bundle\\FrameworkExtraBundle\\Request\\ParamConverter\\ParamConverterInterface -->
<g id="edge108" class="edge"><title>\\ChillDev\\Bundle\\FileManagerBundle\\Request\\ParamConverter\\DiskParamConverter&#45;&gt;\\Sensio\\Bundle\\FrameworkExtraBundle\\Request\\ParamConverter\\ParamConverterInterface</title>
<path fill="none" stroke="black" stroke-dasharray="1,5" d="M1055.75,-640C1029.14,-640 996.319,-640 959.941,-640"/>
<polygon fill="none" stroke="black" points="959.588,-636.5 949.588,-640 959.588,-643.5 959.588,-636.5"/>
</g>
<!-- \\ChillDev\\Bundle\\FileManagerBundle\\Templating\\Helper\\Filesize -->
<g id="node29" class="node"><title>\\ChillDev\\Bundle\\FileManagerBundle\\Templating\\Helper\\Filesize</title>
<a xlink:href="Templating.Helper.Filesize.html" xlink:title="Filesize" target="_parent">
<polygon fill="none" stroke="black" points="1160,-538 1090,-538 1090,-502 1160,-502 1160,-538"/>
<text text-anchor="middle" x="1125" y="-517.1" font-family="Courier,monospace" font-size="11.00">Filesize</text>
</a>
</g>
<!-- \\Symfony\\Component\\Templating\\Helper\\Helper -->
<g id="node111" class="node"><title>\\Symfony\\Component\\Templating\\Helper\\Helper</title>
<ellipse fill="none" stroke="black" cx="475" cy="-520" rx="243.245" ry="18.3848"/>
<text text-anchor="middle" x="475" y="-516.4" font-family="Times Roman,serif" font-size="14.00" fill="gray">\Symfony\Component\Templating\Helper\Helper</text>
</g>
<!-- \\ChillDev\\Bundle\\FileManagerBundle\\Templating\\Helper\\Filesize&#45;&gt;\\Symfony\\Component\\Templating\\Helper\\Helper -->
<g id="edge92" class="edge"><title>\\ChillDev\\Bundle\\FileManagerBundle\\Templating\\Helper\\Filesize&#45;&gt;\\Symfony\\Component\\Templating\\Helper\\Helper</title>
<path fill="none" stroke="black" d="M1089.13,-520C1020.58,-520 865.595,-520 728.479,-520"/>
<polygon fill="none" stroke="black" points="728.22,-516.5 718.22,-520 728.22,-523.5 728.22,-516.5"/>
</g>
<!-- \\ChillDev\\Bundle\\FileManagerBundle\\Templating\\ConfigEngine -->
<g id="node30" class="node"><title>\\ChillDev\\Bundle\\FileManagerBundle\\Templating\\ConfigEngine</title>
<a xlink:href="Templating.ConfigEngine.html" xlink:title="ConfigEngine" target="_parent">
<polygon fill="none" stroke="black" points="1174,-484 1076,-484 1076,-448 1174,-448 1174,-484"/>
<text text-anchor="middle" x="1125" y="-463.1" font-family="Courier,monospace" font-size="11.00">ConfigEngine</text>
</a>
</g>
<!-- \\Symfony\\Bundle\\FrameworkBundle\\Templating\\EngineInterface -->
<g id="node121" class="node"><title>\\Symfony\\Bundle\\FrameworkBundle\\Templating\\EngineInterface</title>
<ellipse fill="none" stroke="black" cx="475" cy="-466" rx="338.204" ry="18.3848"/>
<text text-anchor="middle" x="475" y="-462.4" font-family="Times Roman,serif" font-size="14.00" fill="gray">\\Symfony\\Bundle\\FrameworkBundle\\Templating\\EngineInterface</text>
</g>
<!-- \\ChillDev\\Bundle\\FileManagerBundle\\Templating\\ConfigEngine&#45;&gt;\\Symfony\\Bundle\\FrameworkBundle\\Templating\\EngineInterface -->
<g id="edge104" class="edge"><title>\\ChillDev\\Bundle\\FileManagerBundle\\Templating\\ConfigEngine&#45;&gt;\\Symfony\\Bundle\\FrameworkBundle\\Templating\\EngineInterface</title>
<path fill="none" stroke="black" stroke-dasharray="1,5" d="M1075.88,-466C1019.98,-466 923.463,-466 823.939,-466"/>
<polygon fill="none" stroke="black" points="823.676,-462.5 813.676,-466 823.676,-469.5 823.676,-462.5"/>
</g>
<!-- \\Symfony\\Component\\Templating\\StreamingEngineInterface -->
<g id="node123" class="node"><title>\\Symfony\\Component\\Templating\\StreamingEngineInterface</title>
<ellipse fill="none" stroke="black" cx="475" cy="-412" rx="316.077" ry="18.3848"/>
<text text-anchor="middle" x="475" y="-408.4" font-family="Times Roman,serif" font-size="14.00" fill="gray">\\Symfony\\Component\\Templating\\StreamingEngineInterface</text>
</g>
<!-- \\ChillDev\\Bundle\\FileManagerBundle\\Templating\\ConfigEngine&#45;&gt;\\Symfony\\Component\\Templating\\StreamingEngineInterface -->
<g id="edge106" class="edge"><title>\\ChillDev\\Bundle\\FileManagerBundle\\Templating\\ConfigEngine&#45;&gt;\\Symfony\\Component\\Templating\\StreamingEngineInterface</title>
<path fill="none" stroke="black" stroke-dasharray="1,5" d="M1075.76,-457.105C1040.78,-451.105 992.648,-443.492 950,-439 883.88,-432.036 812.379,-426.783 745.419,-422.852"/>
<polygon fill="none" stroke="black" points="745.329,-419.341 735.144,-422.257 744.925,-426.329 745.329,-419.341"/>
</g>
<!-- \\ChillDev\\Bundle\\FileManagerBundle\\Utils\\Path -->
<g id="node33" class="node"><title>\\ChillDev\\Bundle\\FileManagerBundle\\Utils\\Path</title>
<a xlink:href="Utils.Path.html" xlink:title="Path" target="_parent">
<polygon fill="none" stroke="black" points="1152,-402 1098,-402 1098,-366 1152,-366 1152,-402"/>
<text text-anchor="middle" x="1125" y="-381.1" font-family="Courier,monospace" font-size="11.00">Path</text>
</a>
</g>
<!-- \\ChillDev\\Bundle\\FileManagerBundle\\Utils\\Controller -->
<g id="node34" class="node"><title>\\ChillDev\\Bundle\\FileManagerBundle\\Utils\\Controller</title>
<a xlink:href="Utils.Controller.html" xlink:title="Controller" target="_parent">
<polygon fill="none" stroke="black" points="1167,-348 1083,-348 1083,-312 1167,-312 1167,-348"/>
<text text-anchor="middle" x="1125" y="-327.1" font-family="Courier,monospace" font-size="11.00">Controller</text>
</a>
</g>
<!-- \\ChillDev\\Bundle\\FileManagerBundle\\Validator\\Constraints\\FileNotExists -->
<g id="node37" class="node"><title>\\ChillDev\\Bundle\\FileManagerBundle\\Validator\\Constraints\\FileNotExists</title>
<a xlink:href="Validator.Constraints.FileNotExists.html" xlink:title="FileNotExists" target="_parent">
<polygon fill="none" stroke="black" points="1177,-236 1073,-236 1073,-200 1177,-200 1177,-236"/>
<text text-anchor="middle" x="1125" y="-215.1" font-family="Courier,monospace" font-size="11.00">FileNotExists</text>
</a>
</g>
<!-- \\Symfony\\Component\\Validator\\Constraint -->
<g id="node100" class="node"><title>\\Symfony\\Component\\Validator\\Constraint</title>
<ellipse fill="none" stroke="black" cx="475" cy="-218" rx="217.789" ry="18.3848"/>
<text text-anchor="middle" x="475" y="-214.4" font-family="Times Roman,serif" font-size="14.00" fill="gray">\Symfony\Component\Validator\Constraint</text>
</g>
<!-- \\ChillDev\\Bundle\\FileManagerBundle\\Validator\\Constraints\\FileNotExists&#45;&gt;\\Symfony\\Component\\Validator\\Constraint -->
<g id="edge80" class="edge"><title>\\ChillDev\\Bundle\\FileManagerBundle\\Validator\\Constraints\\FileNotExists&#45;&gt;\\Symfony\\Component\\Validator\\Constraint</title>
<path fill="none" stroke="black" d="M1072.91,-218C993.266,-218 836.465,-218 703.418,-218"/>
<polygon fill="none" stroke="black" points="703.069,-214.5 693.069,-218 703.069,-221.5 703.069,-214.5"/>
</g>
<!-- \\ChillDev\\Bundle\\FileManagerBundle\\Validator\\Constraints\\Filename -->
<g id="node38" class="node"><title>\\ChillDev\\Bundle\\FileManagerBundle\\Validator\\Constraints\\Filename</title>
<a xlink:href="Validator.Constraints.Filename.html" xlink:title="Filename" target="_parent">
<polygon fill="none" stroke="black" points="1160,-182 1090,-182 1090,-146 1160,-146 1160,-182"/>
<text text-anchor="middle" x="1125" y="-161.1" font-family="Courier,monospace" font-size="11.00">Filename</text>
</a>
</g>
<!-- \\Symfony\\Component\\Validator\\Constraints\\Regex -->
<g id="node102" class="node"><title>\\Symfony\\Component\\Validator\\Constraints\\Regex</title>
<ellipse fill="none" stroke="black" cx="475" cy="-164" rx="255.973" ry="18.3848"/>
<text text-anchor="middle" x="475" y="-160.4" font-family="Times Roman,serif" font-size="14.00" fill="gray">\Symfony\Component\Validator\Constraints\Regex</text>
</g>
<!-- \\ChillDev\\Bundle\\FileManagerBundle\\Validator\\Constraints\\Filename&#45;&gt;\\Symfony\\Component\\Validator\\Constraints\\Regex -->
<g id="edge82" class="edge"><title>\\ChillDev\\Bundle\\FileManagerBundle\\Validator\\Constraints\\Filename&#45;&gt;\\Symfony\\Component\\Validator\\Constraints\\Regex</title>
<path fill="none" stroke="black" d="M1089.13,-164C1022.72,-164 875.197,-164 741.383,-164"/>
<polygon fill="none" stroke="black" points="741.364,-160.5 731.364,-164 741.364,-167.5 741.364,-160.5"/>
</g>
<!-- \\ChillDev\\Bundle\\FileManagerBundle\\Validator\\Constraints\\FileNotExistsValidator -->
<g id="node39" class="node"><title>\\ChillDev\\Bundle\\FileManagerBundle\\Validator\\Constraints\\FileNotExistsValidator</title>
<a xlink:href="Validator.Constraints.FileNotExistsValidator.html" xlink:title="FileNotExistsValidator" target="_parent">
<polygon fill="none" stroke="black" points="1207,-128 1043,-128 1043,-92 1207,-92 1207,-128"/>
<text text-anchor="middle" x="1125" y="-107.1" font-family="Courier,monospace" font-size="11.00">FileNotExistsValidator</text>
</a>
</g>
<!-- \\Symfony\\Component\\Validator\\ConstraintValidator -->
<g id="node104" class="node"><title>\\Symfony\\Component\\Validator\\ConstraintValidator</title>
<ellipse fill="none" stroke="black" cx="475" cy="-110" rx="261.129" ry="18.3848"/>
<text text-anchor="middle" x="475" y="-106.4" font-family="Times Roman,serif" font-size="14.00" fill="gray">\Symfony\Component\Validator\ConstraintValidator</text>
</g>
<!-- \\ChillDev\\Bundle\\FileManagerBundle\\Validator\\Constraints\\FileNotExistsValidator&#45;&gt;\\Symfony\\Component\\Validator\\ConstraintValidator -->
<g id="edge84" class="edge"><title>\\ChillDev\\Bundle\\FileManagerBundle\\Validator\\Constraints\\FileNotExistsValidator&#45;&gt;\\Symfony\\Component\\Validator\\ConstraintValidator</title>
<path fill="none" stroke="black" d="M1042.35,-110C967.651,-110 853.413,-110 746.974,-110"/>
<polygon fill="none" stroke="black" points="746.7,-106.5 736.7,-110 746.699,-113.5 746.7,-106.5"/>
</g>
<!-- \\ChillDev\\Bundle\\FileManagerBundle\\ChillDevFileManagerBundle -->
<g id="node41" class="node"><title>\\ChillDev\\Bundle\\FileManagerBundle\\ChillDevFileManagerBundle</title>
<a xlink:href="ChillDevFileManagerBundle.html" xlink:title="ChillDevFileManagerBundle" target="_parent">
<polygon fill="none" stroke="black" points="1217,-68 1033,-68 1033,-32 1217,-32 1217,-68"/>
<text text-anchor="middle" x="1125" y="-47.1" font-family="Courier,monospace" font-size="11.00">ChillDevFileManagerBundle</text>
</a>
</g>
<!-- \\Symfony\\Component\\HttpKernel\\Bundle\\Bundle -->
<g id="node113" class="node"><title>\\Symfony\\Component\\HttpKernel\\Bundle\\Bundle</title>
<ellipse fill="none" stroke="black" cx="475" cy="-50" rx="246.78" ry="18.3848"/>
<text text-anchor="middle" x="475" y="-46.4" font-family="Times Roman,serif" font-size="14.00" fill="gray">\Symfony\Component\HttpKernel\Bundle\Bundle</text>
</g>
<!-- \\ChillDev\\Bundle\\FileManagerBundle\\ChillDevFileManagerBundle&#45;&gt;\\Symfony\\Component\\HttpKernel\\Bundle\\Bundle -->
<g id="edge94" class="edge"><title>\\ChillDev\\Bundle\\FileManagerBundle\\ChillDevFileManagerBundle&#45;&gt;\\Symfony\\Component\\HttpKernel\\Bundle\\Bundle</title>
<path fill="none" stroke="black" d="M1032.22,-50C953.976,-50 838.151,-50 732.338,-50"/>
<polygon fill="none" stroke="black" points="732.131,-46.5001 722.131,-50 732.131,-53.5001 732.131,-46.5001"/>
</g>
</g>
</svg>
