<?xml version="1.0" encoding="UTF-8" standalone="no"?>
<!DOCTYPE svg PUBLIC "-//W3C//DTD SVG 1.1//EN"
 "http://www.w3.org/Graphics/SVG/1.1/DTD/svg11.dtd">
<!-- Generated by graphviz version 2.26.3 (20100126.1600)
 -->
<!-- Title: G Pages: 1 -->
<svg width="1276pt" height="2174pt"
 viewBox="0.00 0.00 1276.00 2174.00" xmlns="http://www.w3.org/2000/svg" xmlns:xlink="http://www.w3.org/1999/xlink">
<g id="graph1" class="graph" transform="scale(1 1) rotate(0) translate(4 2170)">
<title>G</title>
<polygon fill="white" stroke="white" points="-4,5 -4,-2170 1273,-2170 1273,5 -4,5"/>
<g id="graph2" class="cluster"><title>cluster_ChillDev</title>
<polyline fill="none" stroke="gray" points="392,-692 1248,-692 "/>
<path fill="none" stroke="gray" d="M1248,-692C1254,-692 1260,-698 1260,-704"/>
<polyline fill="none" stroke="gray" points="1260,-704 1260,-2146 "/>
<path fill="none" stroke="gray" d="M1260,-2146C1260,-2152 1254,-2158 1248,-2158"/>
<polyline fill="none" stroke="gray" points="1248,-2158 392,-2158 "/>
<path fill="none" stroke="gray" d="M392,-2158C386,-2158 380,-2152 380,-2146"/>
<polyline fill="none" stroke="gray" points="380,-2146 380,-704 "/>
<path fill="none" stroke="gray" d="M380,-704C380,-698 386,-692 392,-692"/>
<text text-anchor="middle" x="820" y="-2144.1" font-family="Times Roman,serif" font-size="11.00" fill="gray">ChillDev</text>
</g>
<g id="graph3" class="cluster"><title>cluster_ChillDev\Bundle</title>
<polyline fill="none" stroke="gray" points="400,-700 1240,-700 "/>
<path fill="none" stroke="gray" d="M1240,-700C1246,-700 1252,-706 1252,-712"/>
<polyline fill="none" stroke="gray" points="1252,-712 1252,-2116 "/>
<path fill="none" stroke="gray" d="M1252,-2116C1252,-2122 1246,-2128 1240,-2128"/>
<polyline fill="none" stroke="gray" points="1240,-2128 400,-2128 "/>
<path fill="none" stroke="gray" d="M400,-2128C394,-2128 388,-2122 388,-2116"/>
<polyline fill="none" stroke="gray" points="388,-2116 388,-712 "/>
<path fill="none" stroke="gray" d="M388,-712C388,-706 394,-700 400,-700"/>
<text text-anchor="middle" x="820" y="-2114.1" font-family="Times Roman,serif" font-size="11.00" fill="gray">Bundle</text>
</g>
<g id="graph4" class="cluster"><title>cluster_ChillDev\Bundle\FileManagerBundle</title>
<polyline fill="none" stroke="gray" points="408,-708 1232,-708 "/>
<path fill="none" stroke="gray" d="M1232,-708C1238,-708 1244,-714 1244,-720"/>
<polyline fill="none" stroke="gray" points="1244,-720 1244,-2086 "/>
<path fill="none" stroke="gray" d="M1244,-2086C1244,-2092 1238,-2098 1232,-2098"/>
<polyline fill="none" stroke="gray" points="1232,-2098 408,-2098 "/>
<path fill="none" stroke="gray" d="M408,-2098C402,-2098 396,-2092 396,-2086"/>
<polyline fill="none" stroke="gray" points="396,-2086 396,-720 "/>
<path fill="none" stroke="gray" d="M396,-720C396,-714 402,-708 408,-708"/>
<text text-anchor="middle" x="820" y="-2084.1" font-family="Times Roman,serif" font-size="11.00" fill="gray">FileManagerBundle</text>
</g>
<g id="graph5" class="cluster"><title>cluster_ChillDev\Bundle\FileManagerBundle\Controller</title>
<polyline fill="none" stroke="gray" points="1070,-1558 1180,-1558 "/>
<path fill="none" stroke="gray" d="M1180,-1558C1186,-1558 1192,-1564 1192,-1570"/>
<polyline fill="none" stroke="gray" points="1192,-1570 1192,-1674 "/>
<path fill="none" stroke="gray" d="M1192,-1674C1192,-1680 1186,-1686 1180,-1686"/>
<polyline fill="none" stroke="gray" points="1180,-1686 1070,-1686 "/>
<path fill="none" stroke="gray" d="M1070,-1686C1064,-1686 1058,-1680 1058,-1674"/>
<polyline fill="none" stroke="gray" points="1058,-1674 1058,-1570 "/>
<path fill="none" stroke="gray" d="M1058,-1570C1058,-1564 1064,-1558 1070,-1558"/>
<text text-anchor="middle" x="1125" y="-1672.1" font-family="Times Roman,serif" font-size="11.00" fill="gray">Controller</text>
</g>
<g id="graph6" class="cluster"><title>cluster_ChillDev\Bundle\FileManagerBundle\DependencyInjection</title>
<polyline fill="none" stroke="gray" points="1026,-1422 1224,-1422 "/>
<path fill="none" stroke="gray" d="M1224,-1422C1230,-1422 1236,-1428 1236,-1434"/>
<polyline fill="none" stroke="gray" points="1236,-1434 1236,-1538 "/>
<path fill="none" stroke="gray" d="M1236,-1538C1236,-1544 1230,-1550 1224,-1550"/>
<polyline fill="none" stroke="gray" points="1224,-1550 1026,-1550 "/>
<path fill="none" stroke="gray" d="M1026,-1550C1020,-1550 1014,-1544 1014,-1538"/>
<polyline fill="none" stroke="gray" points="1014,-1538 1014,-1434 "/>
<path fill="none" stroke="gray" d="M1014,-1434C1014,-1428 1020,-1422 1026,-1422"/>
<text text-anchor="middle" x="1125" y="-1536.1" font-family="Times Roman,serif" font-size="11.00" fill="gray">DependencyInjection</text>
</g>
<g id="graph7" class="cluster"><title>cluster_ChillDev\Bundle\FileManagerBundle\Filesystem</title>
<polyline fill="none" stroke="gray" points="416,-1694 1187,-1694 "/>
<path fill="none" stroke="gray" d="M1187,-1694C1193,-1694 1199,-1700 1199,-1706"/>
<polyline fill="none" stroke="gray" points="1199,-1706 1199,-2056 "/>
<path fill="none" stroke="gray" d="M1199,-2056C1199,-2062 1193,-2068 1187,-2068"/>
<polyline fill="none" stroke="gray" points="1187,-2068 416,-2068 "/>
<path fill="none" stroke="gray" d="M416,-2068C410,-2068 404,-2062 404,-2056"/>
<polyline fill="none" stroke="gray" points="404,-2056 404,-1706 "/>
<path fill="none" stroke="gray" d="M404,-1706C404,-1700 410,-1694 416,-1694"/>
<text text-anchor="middle" x="801.5" y="-2054.1" font-family="Times Roman,serif" font-size="11.00" fill="gray">Filesystem</text>
</g>
<g id="graph8" class="cluster"><title>cluster_ChillDev\Bundle\FileManagerBundle\Filesystem\Adapter</title>
<polyline fill="none" stroke="gray" points="1102,-1964 1148,-1964 "/>
<path fill="none" stroke="gray" d="M1148,-1964C1154,-1964 1160,-1970 1160,-1976"/>
<polyline fill="none" stroke="gray" points="1160,-1976 1160,-2026 "/>
<path fill="none" stroke="gray" d="M1160,-2026C1160,-2032 1154,-2038 1148,-2038"/>
<polyline fill="none" stroke="gray" points="1148,-2038 1102,-2038 "/>
<path fill="none" stroke="gray" d="M1102,-2038C1096,-2038 1090,-2032 1090,-2026"/>
<polyline fill="none" stroke="gray" points="1090,-2026 1090,-1976 "/>
<path fill="none" stroke="gray" d="M1090,-1976C1090,-1970 1096,-1964 1102,-1964"/>
<text text-anchor="middle" x="1125" y="-2024.1" font-family="Times Roman,serif" font-size="11.00" fill="gray">Adapter</text>
</g>
<g id="graph10" class="cluster"><title>cluster_ChillDev\Bundle\FileManagerBundle\Form</title>
<polyline fill="none" stroke="gray" points="1082,-1302 1168,-1302 "/>
<path fill="none" stroke="gray" d="M1168,-1302C1174,-1302 1180,-1308 1180,-1314"/>
<polyline fill="none" stroke="gray" points="1180,-1314 1180,-1402 "/>
<path fill="none" stroke="gray" d="M1180,-1402C1180,-1408 1174,-1414 1168,-1414"/>
<polyline fill="none" stroke="gray" points="1168,-1414 1082,-1414 "/>
<path fill="none" stroke="gray" d="M1082,-1414C1076,-1414 1070,-1408 1070,-1402"/>
<polyline fill="none" stroke="gray" points="1070,-1402 1070,-1314 "/>
<path fill="none" stroke="gray" d="M1070,-1314C1070,-1308 1076,-1302 1082,-1302"/>
<text text-anchor="middle" x="1125" y="-1400.1" font-family="Times Roman,serif" font-size="11.00" fill="gray">Form</text>
</g>
<g id="graph11" class="cluster"><title>cluster_ChillDev\Bundle\FileManagerBundle\Form\Type</title>
<polyline fill="none" stroke="gray" points="1090,-1310 1160,-1310 "/>
<path fill="none" stroke="gray" d="M1160,-1310C1166,-1310 1172,-1316 1172,-1322"/>
<polyline fill="none" stroke="gray" points="1172,-1322 1172,-1372 "/>
<path fill="none" stroke="gray" d="M1172,-1372C1172,-1378 1166,-1384 1160,-1384"/>
<polyline fill="none" stroke="gray" points="1160,-1384 1090,-1384 "/>
<path fill="none" stroke="gray" d="M1090,-1384C1084,-1384 1078,-1378 1078,-1372"/>
<polyline fill="none" stroke="gray" points="1078,-1372 1078,-1322 "/>
<path fill="none" stroke="gray" d="M1078,-1322C1078,-1316 1084,-1310 1090,-1310"/>
<text text-anchor="middle" x="1125" y="-1370.1" font-family="Times Roman,serif" font-size="11.00" fill="gray">Type</text>
</g>
<g id="graph13" class="cluster"><title>cluster_ChillDev\Bundle\FileManagerBundle\Request</title>
<polyline fill="none" stroke="gray" points="1052,-1182 1198,-1182 "/>
<path fill="none" stroke="gray" d="M1198,-1182C1204,-1182 1210,-1188 1210,-1194"/>
<polyline fill="none" stroke="gray" points="1210,-1194 1210,-1282 "/>
<path fill="none" stroke="gray" d="M1210,-1282C1210,-1288 1204,-1294 1198,-1294"/>
<polyline fill="none" stroke="gray" points="1198,-1294 1052,-1294 "/>
<path fill="none" stroke="gray" d="M1052,-1294C1046,-1294 1040,-1288 1040,-1282"/>
<polyline fill="none" stroke="gray" points="1040,-1282 1040,-1194 "/>
<path fill="none" stroke="gray" d="M1040,-1194C1040,-1188 1046,-1182 1052,-1182"/>
<text text-anchor="middle" x="1125" y="-1280.1" font-family="Times Roman,serif" font-size="11.00" fill="gray">Request</text>
</g>
<g id="graph14" class="cluster"><title>cluster_ChillDev\Bundle\FileManagerBundle\Request\ParamConverter</title>
<polyline fill="none" stroke="gray" points="1060,-1190 1190,-1190 "/>
<path fill="none" stroke="gray" d="M1190,-1190C1196,-1190 1202,-1196 1202,-1202"/>
<polyline fill="none" stroke="gray" points="1202,-1202 1202,-1252 "/>
<path fill="none" stroke="gray" d="M1202,-1252C1202,-1258 1196,-1264 1190,-1264"/>
<polyline fill="none" stroke="gray" points="1190,-1264 1060,-1264 "/>
<path fill="none" stroke="gray" d="M1060,-1264C1054,-1264 1048,-1258 1048,-1252"/>
<polyline fill="none" stroke="gray" points="1048,-1252 1048,-1202 "/>
<path fill="none" stroke="gray" d="M1048,-1202C1048,-1196 1054,-1190 1060,-1190"/>
<text text-anchor="middle" x="1125" y="-1250.1" font-family="Times Roman,serif" font-size="11.00" fill="gray">ParamConverter</text>
</g>
<g id="graph16" class="cluster"><title>cluster_ChillDev\Bundle\FileManagerBundle\Templating</title>
<polyline fill="none" stroke="gray" points="1080,-1016 1170,-1016 "/>
<path fill="none" stroke="gray" d="M1170,-1016C1176,-1016 1182,-1022 1182,-1028"/>
<polyline fill="none" stroke="gray" points="1182,-1028 1182,-1162 "/>
<path fill="none" stroke="gray" d="M1182,-1162C1182,-1168 1176,-1174 1170,-1174"/>
<polyline fill="none" stroke="gray" points="1170,-1174 1080,-1174 "/>
<path fill="none" stroke="gray" d="M1080,-1174C1074,-1174 1068,-1168 1068,-1162"/>
<polyline fill="none" stroke="gray" points="1068,-1162 1068,-1028 "/>
<path fill="none" stroke="gray" d="M1068,-1028C1068,-1022 1074,-1016 1080,-1016"/>
<text text-anchor="middle" x="1125" y="-1160.1" font-family="Times Roman,serif" font-size="11.00" fill="gray">Templating</text>
</g>
<g id="graph17" class="cluster"><title>cluster_ChillDev\Bundle\FileManagerBundle\Templating\Helper</title>
<polyline fill="none" stroke="gray" points="1093,-1070 1157,-1070 "/>
<path fill="none" stroke="gray" d="M1157,-1070C1163,-1070 1169,-1076 1169,-1082"/>
<polyline fill="none" stroke="gray" points="1169,-1082 1169,-1132 "/>
<path fill="none" stroke="gray" d="M1169,-1132C1169,-1138 1163,-1144 1157,-1144"/>
<polyline fill="none" stroke="gray" points="1157,-1144 1093,-1144 "/>
<path fill="none" stroke="gray" d="M1093,-1144C1087,-1144 1081,-1138 1081,-1132"/>
<polyline fill="none" stroke="gray" points="1081,-1132 1081,-1082 "/>
<path fill="none" stroke="gray" d="M1081,-1082C1081,-1076 1087,-1070 1093,-1070"/>
<text text-anchor="middle" x="1125" y="-1130.1" font-family="Times Roman,serif" font-size="11.00" fill="gray">Helper</text>
</g>
<g id="graph19" class="cluster"><title>cluster_ChillDev\Bundle\FileManagerBundle\Utils</title>
<polyline fill="none" stroke="gray" points="1102,-934 1148,-934 "/>
<path fill="none" stroke="gray" d="M1148,-934C1154,-934 1160,-940 1160,-946"/>
<polyline fill="none" stroke="gray" points="1160,-946 1160,-996 "/>
<path fill="none" stroke="gray" d="M1160,-996C1160,-1002 1154,-1008 1148,-1008"/>
<polyline fill="none" stroke="gray" points="1148,-1008 1102,-1008 "/>
<path fill="none" stroke="gray" d="M1102,-1008C1096,-1008 1090,-1002 1090,-996"/>
<polyline fill="none" stroke="gray" points="1090,-996 1090,-946 "/>
<path fill="none" stroke="gray" d="M1090,-946C1090,-940 1096,-934 1102,-934"/>
<text text-anchor="middle" x="1125" y="-994.1" font-family="Times Roman,serif" font-size="11.00" fill="gray">Utils</text>
</g>
<g id="graph20" class="cluster"><title>cluster_ChillDev\Bundle\FileManagerBundle\Validator</title>
<polyline fill="none" stroke="gray" points="1038,-760 1212,-760 "/>
<path fill="none" stroke="gray" d="M1212,-760C1218,-760 1224,-766 1224,-772"/>
<polyline fill="none" stroke="gray" points="1224,-772 1224,-914 "/>
<path fill="none" stroke="gray" d="M1224,-914C1224,-920 1218,-926 1212,-926"/>
<polyline fill="none" stroke="gray" points="1212,-926 1038,-926 "/>
<path fill="none" stroke="gray" d="M1038,-926C1032,-926 1026,-920 1026,-914"/>
<polyline fill="none" stroke="gray" points="1026,-914 1026,-772 "/>
<path fill="none" stroke="gray" d="M1026,-772C1026,-766 1032,-760 1038,-760"/>
<text text-anchor="middle" x="1125" y="-912.1" font-family="Times Roman,serif" font-size="11.00" fill="gray">Validator</text>
</g>
<g id="graph21" class="cluster"><title>cluster_ChillDev\Bundle\FileManagerBundle\Validator\Constraints</title>
<polyline fill="none" stroke="gray" points="1046,-768 1204,-768 "/>
<path fill="none" stroke="gray" d="M1204,-768C1210,-768 1216,-774 1216,-780"/>
<polyline fill="none" stroke="gray" points="1216,-780 1216,-884 "/>
<path fill="none" stroke="gray" d="M1216,-884C1216,-890 1210,-896 1204,-896"/>
<polyline fill="none" stroke="gray" points="1204,-896 1046,-896 "/>
<path fill="none" stroke="gray" d="M1046,-896C1040,-896 1034,-890 1034,-884"/>
<polyline fill="none" stroke="gray" points="1034,-884 1034,-780 "/>
<path fill="none" stroke="gray" d="M1034,-780C1034,-774 1040,-768 1046,-768"/>
<text text-anchor="middle" x="1125" y="-882.1" font-family="Times Roman,serif" font-size="11.00" fill="gray">Constraints</text>
</g>
<!-- \\ChillDev\\Bundle\\FileManagerBundle\\Controller\\FilesController -->
<g id="node5" class="node"><title>\\ChillDev\\Bundle\\FileManagerBundle\\Controller\\FilesController</title>
<a xlink:href="Controller.FilesController.html" xlink:title="FilesController" target="_parent">
<polygon fill="none" stroke="black" points="1184,-1656 1066,-1656 1066,-1620 1184,-1620 1184,-1656"/>
<text text-anchor="middle" x="1125" y="-1635.1" font-family="Courier,monospace" font-size="11.00">FilesController</text>
</a>
</g>
<!-- \\Symfony\\Bundle\\FrameworkBundle\\Controller\\Controller -->
<g id="node105" class="node"><title>\\Symfony\\Bundle\\FrameworkBundle\\Controller\\Controller</title>
<ellipse fill="none" stroke="black" cx="475" cy="-558" rx="290.121" ry="18.3848"/>
<text text-anchor="middle" x="475" y="-554.4" font-family="Times Roman,serif" font-size="14.00" fill="gray">\Symfony\Bundle\FrameworkBundle\Controller\Controller</text>
</g>
<!-- \\ChillDev\\Bundle\\FileManagerBundle\\Controller\\FilesController&#45;&gt;\\Symfony\\Bundle\\FrameworkBundle\\Controller\\Controller -->
<g id="edge86" class="edge"><title>\\ChillDev\\Bundle\\FileManagerBundle\\Controller\\FilesController&#45;&gt;\\Symfony\\Bundle\\FrameworkBundle\\Controller\\Controller</title>
<path fill="none" stroke="black" d="M1065.77,-1637.08C1046.46,-1633.65 1026.73,-1626.2 1014,-1611 867.315,-1435.87 1111.98,-746.088 950,-585 911.093,-546.307 784.623,-540.504 671.962,-543.875"/>
<polygon fill="none" stroke="black" points="671.683,-540.382 661.802,-544.204 671.91,-547.378 671.683,-540.382"/>
</g>
<!-- \\ChillDev\\Bundle\\FileManagerBundle\\Controller\\DisksController -->
<g id="node6" class="node"><title>\\ChillDev\\Bundle\\FileManagerBundle\\Controller\\DisksController</title>
<a xlink:href="Controller.DisksController.html" xlink:title="DisksController" target="_parent">
<polygon fill="none" stroke="black" points="1184,-1602 1066,-1602 1066,-1566 1184,-1566 1184,-1602"/>
<text text-anchor="middle" x="1125" y="-1581.1" font-family="Courier,monospace" font-size="11.00">DisksController</text>
</a>
</g>
<!-- \\ChillDev\\Bundle\\FileManagerBundle\\Controller\\DisksController&#45;&gt;\\Symfony\\Bundle\\FrameworkBundle\\Controller\\Controller -->
<g id="edge88" class="edge"><title>\\ChillDev\\Bundle\\FileManagerBundle\\Controller\\DisksController&#45;&gt;\\Symfony\\Bundle\\FrameworkBundle\\Controller\\Controller</title>
<path fill="none" stroke="black" d="M1065.96,-1581.42C1046.55,-1577.48 1026.71,-1569.52 1014,-1554 877.235,-1387.07 1103.29,-736.894 950,-585 911.093,-546.448 785.017,-540.594 672.53,-543.906"/>
<polygon fill="none" stroke="black" points="672.268,-540.412 662.385,-544.23 672.492,-547.409 672.268,-540.412"/>
</g>
<!-- \\ChillDev\\Bundle\\FileManagerBundle\\DependencyInjection\\ChillDevFileManagerExtension -->
<g id="node8" class="node"><title>\\ChillDev\\Bundle\\FileManagerBundle\\DependencyInjection\\ChillDevFileManagerExtension</title>
<a xlink:href="DependencyInjection.ChillDevFileManagerExtension.html" xlink:title="ChillDevFileManagerExtension" target="_parent">
<polygon fill="none" stroke="black" points="1228,-1520 1022,-1520 1022,-1484 1228,-1484 1228,-1520"/>
<text text-anchor="middle" x="1125" y="-1499.1" font-family="Courier,monospace" font-size="11.00">ChillDevFileManagerExtension</text>
</a>
</g>
<!-- \\Symfony\\Component\\HttpKernel\\DependencyInjection\\Extension -->
<g id="node97" class="node"><title>\\Symfony\\Component\\HttpKernel\\DependencyInjection\\Extension</title>
<ellipse fill="none" stroke="black" cx="475" cy="-504" rx="329.012" ry="18.3848"/>
<text text-anchor="middle" x="475" y="-500.4" font-family="Times Roman,serif" font-size="14.00" fill="gray">\Symfony\Component\HttpKernel\DependencyInjection\Extension</text>
</g>
<!-- \\ChillDev\\Bundle\\FileManagerBundle\\DependencyInjection\\ChillDevFileManagerExtension&#45;&gt;\\Symfony\\Component\\HttpKernel\\DependencyInjection\\Extension -->
<g id="edge78" class="edge"><title>\\ChillDev\\Bundle\\FileManagerBundle\\DependencyInjection\\ChillDevFileManagerExtension&#45;&gt;\\Symfony\\Component\\HttpKernel\\DependencyInjection\\Extension</title>
<path fill="none" stroke="black" d="M1023.36,-1483.93C1019.96,-1481.3 1016.81,-1478.34 1014,-1475 878.557,-1314.18 1099.48,-678.862 950,-531 912.807,-494.211 796.125,-487.218 687.723,-489.542"/>
<polygon fill="none" stroke="black" points="687.51,-486.046 677.597,-489.787 687.679,-493.044 687.51,-486.046"/>
</g>
<!-- \\ChillDev\\Bundle\\FileManagerBundle\\DependencyInjection\\Configuration -->
<g id="node9" class="node"><title>\\ChillDev\\Bundle\\FileManagerBundle\\DependencyInjection\\Configuration</title>
<a xlink:href="DependencyInjection.Configuration.html" xlink:title="Configuration" target="_parent">
<polygon fill="none" stroke="black" points="1177,-1466 1073,-1466 1073,-1430 1177,-1430 1177,-1466"/>
<text text-anchor="middle" x="1125" y="-1445.1" font-family="Courier,monospace" font-size="11.00">Configuration</text>
</a>
</g>
<!-- \\Symfony\\Component\\Config\\Definition\\ConfigurationInterface -->
<g id="node114" class="node"><title>\\Symfony\\Component\\Config\\Definition\\ConfigurationInterface</title>
<ellipse fill="none" stroke="black" cx="475" cy="-450" rx="330.219" ry="18.3848"/>
<text text-anchor="middle" x="475" y="-446.4" font-family="Times Roman,serif" font-size="14.00" fill="gray">\\Symfony\\Component\\Config\\Definition\\ConfigurationInterface</text>
</g>
<!-- \\ChillDev\\Bundle\\FileManagerBundle\\DependencyInjection\\Configuration&#45;&gt;\\Symfony\\Component\\Config\\Definition\\ConfigurationInterface -->
<g id="edge96" class="edge"><title>\\ChillDev\\Bundle\\FileManagerBundle\\DependencyInjection\\Configuration&#45;&gt;\\Symfony\\Component\\Config\\Definition\\ConfigurationInterface</title>
<path fill="none" stroke="black" stroke-dasharray="1,5" d="M1072.92,-1432.47C1051.02,-1423.18 1027.53,-1408.99 1014,-1388 904.026,-1217.44 1094.46,-619.541 950,-477 912.834,-440.327 796.526,-433.291 688.311,-435.564"/>
<polygon fill="none" stroke="black" points="688.117,-432.067 678.202,-435.803 688.283,-439.066 688.117,-432.067"/>
</g>
<!-- \\ChillDev\\Bundle\\FileManagerBundle\\Filesystem\\Adapter\\Local -->
<g id="node12" class="node"><title>\\ChillDev\\Bundle\\FileManagerBundle\\Filesystem\\Adapter\\Local</title>
<a xlink:href="Filesystem.Adapter.Local.html" xlink:title="Local" target="_parent">
<polygon fill="none" stroke="black" points="1152,-2008 1098,-2008 1098,-1972 1152,-1972 1152,-2008"/>
<text text-anchor="middle" x="1125" y="-1987.1" font-family="Courier,monospace" font-size="11.00">Local</text>
</a>
</g>
<!-- \\ChillDev\\Bundle\\FileManagerBundle\\Filesystem\\AdapterInterface -->
<g id="node15" class="node"><title>\\ChillDev\\Bundle\\FileManagerBundle\\Filesystem\\AdapterInterface</title>
<a xlink:href="Filesystem.AdapterInterface.html" xlink:title="AdapterInterface" target="_parent">
<polygon fill="none" stroke="black" points="537,-2008 413,-2008 413,-1972 537,-1972 537,-2008"/>
<text text-anchor="middle" x="475" y="-1987.1" font-family="Courier,monospace" font-size="11.00">AdapterInterface</text>
</a>
</g>
<!-- \\ChillDev\\Bundle\\FileManagerBundle\\Filesystem\\Adapter\\Local&#45;&gt;\\ChillDev\\Bundle\\FileManagerBundle\\Filesystem\\AdapterInterface -->
<g id="edge100" class="edge"><title>\\ChillDev\\Bundle\\FileManagerBundle\\Filesystem\\Adapter\\Local&#45;&gt;\\ChillDev\\Bundle\\FileManagerBundle\\Filesystem\\AdapterInterface</title>
<path fill="none" stroke="black" stroke-dasharray="1,5" d="M1097.9,-1990C1004.04,-1990 690.825,-1990 547.596,-1990"/>
<polygon fill="none" stroke="black" points="547.583,-1986.5 537.583,-1990 547.583,-1993.5 547.583,-1986.5"/>
</g>
<!-- \\ChillDev\\Bundle\\FileManagerBundle\\Filesystem\\Disk -->
<g id="node13" class="node"><title>\\ChillDev\\Bundle\\FileManagerBundle\\Filesystem\\Disk</title>
<a xlink:href="Filesystem.Disk.html" xlink:title="Disk" target="_parent">
<polygon fill="none" stroke="black" points="1152,-1954 1098,-1954 1098,-1918 1152,-1918 1152,-1954"/>
<text text-anchor="middle" x="1125" y="-1933.1" font-family="Courier,monospace" font-size="11.00">Disk</text>
</a>
</g>
<!-- \\ChillDev\\Bundle\\FileManagerBundle\\Filesystem\\DirectoryIterator -->
<g id="node14" class="node"><title>\\ChillDev\\Bundle\\FileManagerBundle\\Filesystem\\DirectoryIterator</title>
<a xlink:href="Filesystem.DirectoryIterator.html" xlink:title="DirectoryIterator" target="_parent">
<polygon fill="none" stroke="black" points="1190,-1900 1060,-1900 1060,-1864 1190,-1864 1190,-1900"/>
<text text-anchor="middle" x="1125" y="-1879.1" font-family="Courier,monospace" font-size="11.00">DirectoryIterator</text>
</a>
</g>
<!-- \\Iterator -->
<g id="node116" class="node"><title>\\Iterator</title>
<ellipse fill="none" stroke="black" cx="475" cy="-666" rx="55.8614" ry="18.3848"/>
<text text-anchor="middle" x="475" y="-662.4" font-family="Times Roman,serif" font-size="14.00" fill="gray">\\Iterator</text>
</g>
<!-- \\ChillDev\\Bundle\\FileManagerBundle\\Filesystem\\DirectoryIterator&#45;&gt;\\Iterator -->
<g id="edge98" class="edge"><title>\\ChillDev\\Bundle\\FileManagerBundle\\Filesystem\\DirectoryIterator&#45;&gt;\\Iterator</title>
<path fill="none" stroke="black" stroke-dasharray="1,5" d="M1059.27,-1876.76C1042.98,-1872.74 1026.6,-1866.05 1014,-1855 954.85,-1803.15 980.787,-1762.38 950,-1690 779.144,-1288.32 546.015,-810.428 488.319,-693.025"/>
<polygon fill="none" stroke="black" points="491.429,-691.417 483.875,-683.988 485.148,-694.506 491.429,-691.417"/>
</g>
<!-- \\ChillDev\\Bundle\\FileManagerBundle\\Filesystem\\FileInfo -->
<g id="node16" class="node"><title>\\ChillDev\\Bundle\\FileManagerBundle\\Filesystem\\FileInfo</title>
<a xlink:href="Filesystem.FileInfo.html" xlink:title="FileInfo" target="_parent">
<polygon fill="none" stroke="black" points="1160,-1846 1090,-1846 1090,-1810 1160,-1810 1160,-1846"/>
<text text-anchor="middle" x="1125" y="-1825.1" font-family="Courier,monospace" font-size="11.00">FileInfo</text>
</a>
</g>
<!-- \\ChillDev\\Bundle\\FileManagerBundle\\Filesystem\\Filesystem -->
<g id="node17" class="node"><title>\\ChillDev\\Bundle\\FileManagerBundle\\Filesystem\\Filesystem</title>
<a xlink:href="Filesystem.Filesystem.html" xlink:title="Filesystem" target="_parent">
<polygon fill="none" stroke="black" points="1167,-1792 1083,-1792 1083,-1756 1167,-1756 1167,-1792"/>
<text text-anchor="middle" x="1125" y="-1771.1" font-family="Courier,monospace" font-size="11.00">Filesystem</text>
</a>
</g>
<!-- \\ChillDev\\Bundle\\FileManagerBundle\\Filesystem\\Manager -->
<g id="node18" class="node"><title>\\ChillDev\\Bundle\\FileManagerBundle\\Filesystem\\Manager</title>
<a xlink:href="Filesystem.Manager.html" xlink:title="Manager" target="_parent">
<polygon fill="none" stroke="black" points="1157,-1738 1093,-1738 1093,-1702 1157,-1702 1157,-1738"/>
<text text-anchor="middle" x="1125" y="-1717.1" font-family="Courier,monospace" font-size="11.00">Manager</text>
</a>
</g>
<!-- \\ArrayObject -->
<g id="node103" class="node"><title>\\ArrayObject</title>
<ellipse fill="none" stroke="black" cx="475" cy="-612" rx="73.0388" ry="18.3848"/>
<text text-anchor="middle" x="475" y="-608.4" font-family="Times Roman,serif" font-size="14.00" fill="gray">\ArrayObject</text>
</g>
<!-- \\ChillDev\\Bundle\\FileManagerBundle\\Filesystem\\Manager&#45;&gt;\\ArrayObject -->
<g id="edge84" class="edge"><title>\\ChillDev\\Bundle\\FileManagerBundle\\Filesystem\\Manager&#45;&gt;\\ArrayObject</title>
<path fill="none" stroke="black" d="M1092.88,-1720.74C1067.31,-1719.44 1032.79,-1713.06 1014,-1690 866.175,-1508.62 1115.79,-804.12 950,-639 896.19,-585.407 674.592,-594.876 554.023,-604.463"/>
<polygon fill="none" stroke="black" points="553.428,-601 543.745,-605.3 553.996,-607.977 553.428,-601"/>
</g>
<!-- \\ChillDev\\Bundle\\FileManagerBundle\\Form\\Type\\MkdirType -->
<g id="node22" class="node"><title>\\ChillDev\\Bundle\\FileManagerBundle\\Form\\Type\\MkdirType</title>
<a xlink:href="Form.Type.MkdirType.html" xlink:title="MkdirType" target="_parent">
<polygon fill="none" stroke="black" points="1163,-1354 1087,-1354 1087,-1318 1163,-1318 1163,-1354"/>
<text text-anchor="middle" x="1125" y="-1333.1" font-family="Courier,monospace" font-size="11.00">MkdirType</text>
</a>
</g>
<!-- \\Symfony\\Component\\Form\\AbstractType -->
<g id="node112" class="node"><title>\\Symfony\\Component\\Form\\AbstractType</title>
<ellipse fill="none" stroke="black" cx="475" cy="-396" rx="210.217" ry="18.3848"/>
<text text-anchor="middle" x="475" y="-392.4" font-family="Times Roman,serif" font-size="14.00" fill="gray">\Symfony\Component\Form\AbstractType</text>
</g>
<!-- \\ChillDev\\Bundle\\FileManagerBundle\\Form\\Type\\MkdirType&#45;&gt;\\Symfony\\Component\\Form\\AbstractType -->
<g id="edge94" class="edge"><title>\\ChillDev\\Bundle\\FileManagerBundle\\Form\\Type\\MkdirType&#45;&gt;\\Symfony\\Component\\Form\\AbstractType</title>
<path fill="none" stroke="black" d="M1086.35,-1322.94C1061.24,-1312.3 1030.26,-1294.61 1014,-1268 915.831,-1107.3 1084.41,-554.901 950,-423 906.994,-380.796 758.726,-377.928 639.145,-383.267"/>
<polygon fill="none" stroke="black" points="638.956,-379.772 629.131,-383.736 639.284,-386.764 638.956,-379.772"/>
</g>
<!-- \\ChillDev\\Bundle\\FileManagerBundle\\Request\\ParamConverter\\DiskParamConverter -->
<g id="node26" class="node"><title>\\ChillDev\\Bundle\\FileManagerBundle\\Request\\ParamConverter\\DiskParamConverter</title>
<a xlink:href="Request.ParamConverter.DiskParamConverter.html" xlink:title="DiskParamConverter" target="_parent">
<polygon fill="none" stroke="black" points="1194,-1234 1056,-1234 1056,-1198 1194,-1198 1194,-1234"/>
<text text-anchor="middle" x="1125" y="-1213.1" font-family="Courier,monospace" font-size="11.00">DiskParamConverter</text>
</a>
</g>
<!-- \\Sensio\\Bundle\\FrameworkExtraBundle\\Request\\ParamConverter\\ParamConverterInterface -->
<g id="node123" class="node"><title>\\Sensio\\Bundle\\FrameworkExtraBundle\\Request\\ParamConverter\\ParamConverterInterface</title>
<ellipse fill="none" stroke="black" cx="475" cy="-342" rx="473.969" ry="18.3848"/>
<text text-anchor="middle" x="475" y="-338.4" font-family="Times Roman,serif" font-size="14.00" fill="gray">\\Sensio\\Bundle\\FrameworkExtraBundle\\Request\\ParamConverter\\ParamConverterInterface</text>
</g>
<!-- \\ChillDev\\Bundle\\FileManagerBundle\\Request\\ParamConverter\\DiskParamConverter&#45;&gt;\\Sensio\\Bundle\\FrameworkExtraBundle\\Request\\ParamConverter\\ParamConverterInterface -->
<g id="edge106" class="edge"><title>\\ChillDev\\Bundle\\FileManagerBundle\\Request\\ParamConverter\\DiskParamConverter&#45;&gt;\\Sensio\\Bundle\\FrameworkExtraBundle\\Request\\ParamConverter\\ParamConverterInterface</title>
<path fill="none" stroke="black" stroke-dasharray="1,5" d="M1075.48,-1197.96C1052.86,-1187.07 1028.03,-1170.81 1014,-1148 922.981,-1000.06 1074.36,-490.264 950,-369 943.532,-362.693 934.701,-357.266 923.958,-352.616"/>
<polygon fill="none" stroke="black" points="925.082,-349.297 914.494,-348.89 922.517,-355.81 925.082,-349.297"/>
</g>
<!-- \\ChillDev\\Bundle\\FileManagerBundle\\Templating\\Helper\\Filesize -->
<g id="node30" class="node"><title>\\ChillDev\\Bundle\\FileManagerBundle\\Templating\\Helper\\Filesize</title>
<a xlink:href="Templating.Helper.Filesize.html" xlink:title="Filesize" target="_parent">
<polygon fill="none" stroke="black" points="1160,-1114 1090,-1114 1090,-1078 1160,-1078 1160,-1114"/>
<text text-anchor="middle" x="1125" y="-1093.1" font-family="Courier,monospace" font-size="11.00">Filesize</text>
</a>
</g>
<!-- \\Symfony\\Component\\Templating\\Helper\\Helper -->
<g id="node108" class="node"><title>\\Symfony\\Component\\Templating\\Helper\\Helper</title>
<ellipse fill="none" stroke="black" cx="475" cy="-288" rx="243.245" ry="18.3848"/>
<text text-anchor="middle" x="475" y="-284.4" font-family="Times Roman,serif" font-size="14.00" fill="gray">\Symfony\Component\Templating\Helper\Helper</text>
</g>
<!-- \\ChillDev\\Bundle\\FileManagerBundle\\Templating\\Helper\\Filesize&#45;&gt;\\Symfony\\Component\\Templating\\Helper\\Helper -->
<g id="edge90" class="edge"><title>\\ChillDev\\Bundle\\FileManagerBundle\\Templating\\Helper\\Filesize&#45;&gt;\\Symfony\\Component\\Templating\\Helper\\Helper</title>
<path fill="none" stroke="black" d="M1089.37,-1099.17C1064.49,-1099.26 1032.53,-1094.72 1014,-1074 901.169,-947.826 1071.31,-433.041 950,-315 908.728,-274.841 771.498,-270.419 655.086,-274.718"/>
<polygon fill="none" stroke="black" points="654.818,-271.226 644.963,-275.115 655.093,-278.22 654.818,-271.226"/>
</g>
<!-- \\ChillDev\\Bundle\\FileManagerBundle\\Templating\\ConfigEngine -->
<g id="node31" class="node"><title>\\ChillDev\\Bundle\\FileManagerBundle\\Templating\\ConfigEngine</title>
<a xlink:href="Templating.ConfigEngine.html" xlink:title="ConfigEngine" target="_parent">
<polygon fill="none" stroke="black" points="1174,-1060 1076,-1060 1076,-1024 1174,-1024 1174,-1060"/>
<text text-anchor="middle" x="1125" y="-1039.1" font-family="Courier,monospace" font-size="11.00">ConfigEngine</text>
</a>
</g>
<!-- \\Symfony\\Bundle\\FrameworkBundle\\Templating\\EngineInterface -->
<g id="node119" class="node"><title>\\Symfony\\Bundle\\FrameworkBundle\\Templating\\EngineInterface</title>
<ellipse fill="none" stroke="black" cx="475" cy="-234" rx="338.204" ry="18.3848"/>
<text text-anchor="middle" x="475" y="-230.4" font-family="Times Roman,serif" font-size="14.00" fill="gray">\\Symfony\\Bundle\\FrameworkBundle\\Templating\\EngineInterface</text>
</g>
<!-- \\ChillDev\\Bundle\\FileManagerBundle\\Templating\\ConfigEngine&#45;&gt;\\Symfony\\Bundle\\FrameworkBundle\\Templating\\EngineInterface -->
<g id="edge102" class="edge"><title>\\ChillDev\\Bundle\\FileManagerBundle\\Templating\\ConfigEngine&#45;&gt;\\Symfony\\Bundle\\FrameworkBundle\\Templating\\EngineInterface</title>
<path fill="none" stroke="black" stroke-dasharray="1,5" d="M1075.89,-1040.97C1053.65,-1037.8 1029.04,-1030 1014,-1012 906.621,-883.455 1070.1,-377.752 950,-261 913.317,-225.338 800.909,-217.867 694.653,-219.655"/>
<polygon fill="none" stroke="black" points="694.322,-216.161 684.392,-219.857 694.459,-223.16 694.322,-216.161"/>
</g>
<!-- \\Symfony\\Component\\Templating\\StreamingEngineInterface -->
<g id="node121" class="node"><title>\\Symfony\\Component\\Templating\\StreamingEngineInterface</title>
<ellipse fill="none" stroke="black" cx="475" cy="-180" rx="316.077" ry="18.3848"/>
<text text-anchor="middle" x="475" y="-176.4" font-family="Times Roman,serif" font-size="14.00" fill="gray">\\Symfony\\Component\\Templating\\StreamingEngineInterface</text>
</g>
<!-- \\ChillDev\\Bundle\\FileManagerBundle\\Templating\\ConfigEngine&#45;&gt;\\Symfony\\Component\\Templating\\StreamingEngineInterface -->
<g id="edge104" class="edge"><title>\\ChillDev\\Bundle\\FileManagerBundle\\Templating\\ConfigEngine&#45;&gt;\\Symfony\\Component\\Templating\\StreamingEngineInterface</title>
<path fill="none" stroke="black" stroke-dasharray="1,5" d="M1075.85,-1041C1053.6,-1037.84 1028.99,-1030.04 1014,-1012 899.345,-873.95 1078.32,-332.454 950,-207 912.272,-170.113 793.893,-163.319 684.762,-165.769"/>
<polygon fill="none" stroke="black" points="684.48,-162.275 674.571,-166.025 684.656,-169.273 684.48,-162.275"/>
</g>
<!-- \\ChillDev\\Bundle\\FileManagerBundle\\Utils\\Path -->
<g id="node34" class="node"><title>\\ChillDev\\Bundle\\FileManagerBundle\\Utils\\Path</title>
<a xlink:href="Utils.Path.html" xlink:title="Path" target="_parent">
<polygon fill="none" stroke="black" points="1152,-978 1098,-978 1098,-942 1152,-942 1152,-978"/>
<text text-anchor="middle" x="1125" y="-957.1" font-family="Courier,monospace" font-size="11.00">Path</text>
</a>
</g>
<!-- \\ChillDev\\Bundle\\FileManagerBundle\\Validator\\Constraints\\FileNotExists -->
<g id="node37" class="node"><title>\\ChillDev\\Bundle\\FileManagerBundle\\Validator\\Constraints\\FileNotExists</title>
<a xlink:href="Validator.Constraints.FileNotExists.html" xlink:title="FileNotExists" target="_parent">
<polygon fill="none" stroke="black" points="1177,-866 1073,-866 1073,-830 1177,-830 1177,-866"/>
<text text-anchor="middle" x="1125" y="-845.1" font-family="Courier,monospace" font-size="11.00">FileNotExists</text>
</a>
</g>
<!-- \\Symfony\\Component\\Validator\\Constraint -->
<g id="node99" class="node"><title>\\Symfony\\Component\\Validator\\Constraint</title>
<ellipse fill="none" stroke="black" cx="475" cy="-126" rx="217.789" ry="18.3848"/>
<text text-anchor="middle" x="475" y="-122.4" font-family="Times Roman,serif" font-size="14.00" fill="gray">\Symfony\Component\Validator\Constraint</text>
</g>
<!-- \\ChillDev\\Bundle\\FileManagerBundle\\Validator\\Constraints\\FileNotExists&#45;&gt;\\Symfony\\Component\\Validator\\Constraint -->
<g id="edge80" class="edge"><title>\\ChillDev\\Bundle\\FileManagerBundle\\Validator\\Constraints\\FileNotExists&#45;&gt;\\Symfony\\Component\\Validator\\Constraint</title>
<path fill="none" stroke="black" d="M1072.95,-847.919C1051.61,-845.056 1028.54,-837.789 1014,-821 916.361,-708.285 1057.47,-256.385 950,-153 907.271,-111.894 763.079,-108.402 644.664,-113.263"/>
<polygon fill="none" stroke="black" points="644.218,-109.779 634.379,-113.708 644.522,-116.772 644.218,-109.779"/>
</g>
<!-- \\ChillDev\\Bundle\\FileManagerBundle\\Validator\\Constraints\\FileNotExistsValidator -->
<g id="node38" class="node"><title>\\ChillDev\\Bundle\\FileManagerBundle\\Validator\\Constraints\\FileNotExistsValidator</title>
<a xlink:href="Validator.Constraints.FileNotExistsValidator.html" xlink:title="FileNotExistsValidator" target="_parent">
<polygon fill="none" stroke="black" points="1207,-812 1043,-812 1043,-776 1207,-776 1207,-812"/>
<text text-anchor="middle" x="1125" y="-791.1" font-family="Courier,monospace" font-size="11.00">FileNotExistsValidator</text>
</a>
</g>
<!-- \\Symfony\\Component\\Validator\\ConstraintValidator -->
<g id="node101" class="node"><title>\\Symfony\\Component\\Validator\\ConstraintValidator</title>
<ellipse fill="none" stroke="black" cx="475" cy="-72" rx="261.129" ry="18.3848"/>
<text text-anchor="middle" x="475" y="-68.4" font-family="Times Roman,serif" font-size="14.00" fill="gray">\Symfony\Component\Validator\ConstraintValidator</text>
</g>
<!-- \\ChillDev\\Bundle\\FileManagerBundle\\Validator\\Constraints\\FileNotExistsValidator&#45;&gt;\\Symfony\\Component\\Validator\\ConstraintValidator -->
<g id="edge82" class="edge"><title>\\ChillDev\\Bundle\\FileManagerBundle\\Validator\\Constraints\\FileNotExistsValidator&#45;&gt;\\Symfony\\Component\\Validator\\ConstraintValidator</title>
<path fill="none" stroke="black" d="M1042.22,-790.046C1031.52,-786.205 1021.64,-780.453 1014,-772 913.261,-660.552 1058.23,-203.19 950,-99 909.638,-60.1449 778.673,-54.8873 664.459,-58.5307"/>
<polygon fill="none" stroke="black" points="664.041,-55.0429 654.167,-58.8842 664.281,-62.0387 664.041,-55.0429"/>
</g>
<!-- \\ChillDev\\Bundle\\FileManagerBundle\\ChillDevFileManagerBundle -->
<g id="node40" class="node"><title>\\ChillDev\\Bundle\\FileManagerBundle\\ChillDevFileManagerBundle</title>
<a xlink:href="ChillDevFileManagerBundle.html" xlink:title="ChillDevFileManagerBundle" target="_parent">
<polygon fill="none" stroke="black" points="1217,-752 1033,-752 1033,-716 1217,-716 1217,-752"/>
<text text-anchor="middle" x="1125" y="-731.1" font-family="Courier,monospace" font-size="11.00">ChillDevFileManagerBundle</text>
</a>
</g>
<!-- \\Symfony\\Component\\HttpKernel\\Bundle\\Bundle -->
<g id="node110" class="node"><title>\\Symfony\\Component\\HttpKernel\\Bundle\\Bundle</title>
<ellipse fill="none" stroke="black" cx="475" cy="-18" rx="246.78" ry="18.3848"/>
<text text-anchor="middle" x="475" y="-14.4" font-family="Times Roman,serif" font-size="14.00" fill="gray">\Symfony\Component\HttpKernel\Bundle\Bundle</text>
</g>
<!-- \\ChillDev\\Bundle\\FileManagerBundle\\ChillDevFileManagerBundle&#45;&gt;\\Symfony\\Component\\HttpKernel\\Bundle\\Bundle -->
<g id="edge92" class="edge"><title>\\ChillDev\\Bundle\\FileManagerBundle\\ChillDevFileManagerBundle&#45;&gt;\\Symfony\\Component\\HttpKernel\\Bundle\\Bundle</title>
<path fill="none" stroke="black" d="M1123.24,-715.951C1113.15,-616.338 1059.16,-134.985 950,-45 908.514,-10.8001 786.382,-4.40159 676.356,-6.37284"/>
<polygon fill="none" stroke="black" points="676.016,-2.87891 666.09,-6.58133 676.159,-9.87747 676.016,-2.87891"/>
</g>
</g>
</svg>
