<?xml version="1.0" encoding="UTF-8" standalone="no"?>
<!DOCTYPE svg PUBLIC "-//W3C//DTD SVG 1.1//EN"
 "http://www.w3.org/Graphics/SVG/1.1/DTD/svg11.dtd">
<!-- Generated by graphviz version 2.26.3 (20100126.1600)
 -->
<!-- Title: G Pages: 1 -->
<svg width="1276pt" height="1078pt"
 viewBox="0.00 0.00 1276.00 1078.00" xmlns="http://www.w3.org/2000/svg" xmlns:xlink="http://www.w3.org/1999/xlink">
<g id="graph1" class="graph" transform="scale(1 1) rotate(0) translate(4 1074)">
<title>G</title>
<polygon fill="white" stroke="white" points="-4,5 -4,-1074 1273,-1074 1273,5 -4,5"/>
<g id="graph2" class="cluster"><title>cluster_ChillDev</title>
<polyline fill="none" stroke="gray" points="1002,-8 1248,-8 "/>
<path fill="none" stroke="gray" d="M1248,-8C1254,-8 1260,-14 1260,-20"/>
<polyline fill="none" stroke="gray" points="1260,-20 1260,-1050 "/>
<path fill="none" stroke="gray" d="M1260,-1050C1260,-1056 1254,-1062 1248,-1062"/>
<polyline fill="none" stroke="gray" points="1248,-1062 1002,-1062 "/>
<path fill="none" stroke="gray" d="M1002,-1062C996,-1062 990,-1056 990,-1050"/>
<polyline fill="none" stroke="gray" points="990,-1050 990,-20 "/>
<path fill="none" stroke="gray" d="M990,-20C990,-14 996,-8 1002,-8"/>
<text text-anchor="middle" x="1125" y="-1048.1" font-family="Times Roman,serif" font-size="11.00" fill="gray">ChillDev</text>
</g>
<g id="graph3" class="cluster"><title>cluster_ChillDev\Bundle</title>
<polyline fill="none" stroke="gray" points="1010,-16 1240,-16 "/>
<path fill="none" stroke="gray" d="M1240,-16C1246,-16 1252,-22 1252,-28"/>
<polyline fill="none" stroke="gray" points="1252,-28 1252,-1020 "/>
<path fill="none" stroke="gray" d="M1252,-1020C1252,-1026 1246,-1032 1240,-1032"/>
<polyline fill="none" stroke="gray" points="1240,-1032 1010,-1032 "/>
<path fill="none" stroke="gray" d="M1010,-1032C1004,-1032 998,-1026 998,-1020"/>
<polyline fill="none" stroke="gray" points="998,-1020 998,-28 "/>
<path fill="none" stroke="gray" d="M998,-28C998,-22 1004,-16 1010,-16"/>
<text text-anchor="middle" x="1125" y="-1018.1" font-family="Times Roman,serif" font-size="11.00" fill="gray">Bundle</text>
</g>
<g id="graph4" class="cluster"><title>cluster_ChillDev\Bundle\FileManagerBundle</title>
<polyline fill="none" stroke="gray" points="1018,-24 1232,-24 "/>
<path fill="none" stroke="gray" d="M1232,-24C1238,-24 1244,-30 1244,-36"/>
<polyline fill="none" stroke="gray" points="1244,-36 1244,-990 "/>
<path fill="none" stroke="gray" d="M1244,-990C1244,-996 1238,-1002 1232,-1002"/>
<polyline fill="none" stroke="gray" points="1232,-1002 1018,-1002 "/>
<path fill="none" stroke="gray" d="M1018,-1002C1012,-1002 1006,-996 1006,-990"/>
<polyline fill="none" stroke="gray" points="1006,-990 1006,-36 "/>
<path fill="none" stroke="gray" d="M1006,-36C1006,-30 1012,-24 1018,-24"/>
<text text-anchor="middle" x="1125" y="-988.1" font-family="Times Roman,serif" font-size="11.00" fill="gray">FileManagerBundle</text>
</g>
<g id="graph5" class="cluster"><title>cluster_ChillDev\Bundle\FileManagerBundle\Controller</title>
<polyline fill="none" stroke="gray" points="1070,-844 1180,-844 "/>
<path fill="none" stroke="gray" d="M1180,-844C1186,-844 1192,-850 1192,-856"/>
<polyline fill="none" stroke="gray" points="1192,-856 1192,-960 "/>
<path fill="none" stroke="gray" d="M1192,-960C1192,-966 1186,-972 1180,-972"/>
<polyline fill="none" stroke="gray" points="1180,-972 1070,-972 "/>
<path fill="none" stroke="gray" d="M1070,-972C1064,-972 1058,-966 1058,-960"/>
<polyline fill="none" stroke="gray" points="1058,-960 1058,-856 "/>
<path fill="none" stroke="gray" d="M1058,-856C1058,-850 1064,-844 1070,-844"/>
<text text-anchor="middle" x="1125" y="-958.1" font-family="Times Roman,serif" font-size="11.00" fill="gray">Controller</text>
</g>
<g id="graph6" class="cluster"><title>cluster_ChillDev\Bundle\FileManagerBundle\DependencyInjection</title>
<polyline fill="none" stroke="gray" points="1026,-708 1224,-708 "/>
<path fill="none" stroke="gray" d="M1224,-708C1230,-708 1236,-714 1236,-720"/>
<polyline fill="none" stroke="gray" points="1236,-720 1236,-824 "/>
<path fill="none" stroke="gray" d="M1236,-824C1236,-830 1230,-836 1224,-836"/>
<polyline fill="none" stroke="gray" points="1224,-836 1026,-836 "/>
<path fill="none" stroke="gray" d="M1026,-836C1020,-836 1014,-830 1014,-824"/>
<polyline fill="none" stroke="gray" points="1014,-824 1014,-720 "/>
<path fill="none" stroke="gray" d="M1014,-720C1014,-714 1020,-708 1026,-708"/>
<text text-anchor="middle" x="1125" y="-822.1" font-family="Times Roman,serif" font-size="11.00" fill="gray">DependencyInjection</text>
</g>
<g id="graph7" class="cluster"><title>cluster_ChillDev\Bundle\FileManagerBundle\Filesystem</title>
<polyline fill="none" stroke="gray" points="1097,-572 1153,-572 "/>
<path fill="none" stroke="gray" d="M1153,-572C1159,-572 1165,-578 1165,-584"/>
<polyline fill="none" stroke="gray" points="1165,-584 1165,-688 "/>
<path fill="none" stroke="gray" d="M1165,-688C1165,-694 1159,-700 1153,-700"/>
<polyline fill="none" stroke="gray" points="1153,-700 1097,-700 "/>
<path fill="none" stroke="gray" d="M1097,-700C1091,-700 1085,-694 1085,-688"/>
<polyline fill="none" stroke="gray" points="1085,-688 1085,-584 "/>
<path fill="none" stroke="gray" d="M1085,-584C1085,-578 1091,-572 1097,-572"/>
<text text-anchor="middle" x="1125" y="-686.1" font-family="Times Roman,serif" font-size="11.00" fill="gray">Filesystem</text>
</g>
<g id="graph8" class="cluster"><title>cluster_ChillDev\Bundle\FileManagerBundle\Form</title>
<polyline fill="none" stroke="gray" points="1082,-452 1168,-452 "/>
<path fill="none" stroke="gray" d="M1168,-452C1174,-452 1180,-458 1180,-464"/>
<polyline fill="none" stroke="gray" points="1180,-464 1180,-552 "/>
<path fill="none" stroke="gray" d="M1180,-552C1180,-558 1174,-564 1168,-564"/>
<polyline fill="none" stroke="gray" points="1168,-564 1082,-564 "/>
<path fill="none" stroke="gray" d="M1082,-564C1076,-564 1070,-558 1070,-552"/>
<polyline fill="none" stroke="gray" points="1070,-552 1070,-464 "/>
<path fill="none" stroke="gray" d="M1070,-464C1070,-458 1076,-452 1082,-452"/>
<text text-anchor="middle" x="1125" y="-550.1" font-family="Times Roman,serif" font-size="11.00" fill="gray">Form</text>
</g>
<g id="graph9" class="cluster"><title>cluster_ChillDev\Bundle\FileManagerBundle\Form\Type</title>
<polyline fill="none" stroke="gray" points="1090,-460 1160,-460 "/>
<path fill="none" stroke="gray" d="M1160,-460C1166,-460 1172,-466 1172,-472"/>
<polyline fill="none" stroke="gray" points="1172,-472 1172,-522 "/>
<path fill="none" stroke="gray" d="M1172,-522C1172,-528 1166,-534 1160,-534"/>
<polyline fill="none" stroke="gray" points="1160,-534 1090,-534 "/>
<path fill="none" stroke="gray" d="M1090,-534C1084,-534 1078,-528 1078,-522"/>
<polyline fill="none" stroke="gray" points="1078,-522 1078,-472 "/>
<path fill="none" stroke="gray" d="M1078,-472C1078,-466 1084,-460 1090,-460"/>
<text text-anchor="middle" x="1125" y="-520.1" font-family="Times Roman,serif" font-size="11.00" fill="gray">Type</text>
</g>
<g id="graph11" class="cluster"><title>cluster_ChillDev\Bundle\FileManagerBundle\Request</title>
<polyline fill="none" stroke="gray" points="1052,-332 1198,-332 "/>
<path fill="none" stroke="gray" d="M1198,-332C1204,-332 1210,-338 1210,-344"/>
<polyline fill="none" stroke="gray" points="1210,-344 1210,-432 "/>
<path fill="none" stroke="gray" d="M1210,-432C1210,-438 1204,-444 1198,-444"/>
<polyline fill="none" stroke="gray" points="1198,-444 1052,-444 "/>
<path fill="none" stroke="gray" d="M1052,-444C1046,-444 1040,-438 1040,-432"/>
<polyline fill="none" stroke="gray" points="1040,-432 1040,-344 "/>
<path fill="none" stroke="gray" d="M1040,-344C1040,-338 1046,-332 1052,-332"/>
<text text-anchor="middle" x="1125" y="-430.1" font-family="Times Roman,serif" font-size="11.00" fill="gray">Request</text>
</g>
<g id="graph12" class="cluster"><title>cluster_ChillDev\Bundle\FileManagerBundle\Request\ParamConverter</title>
<polyline fill="none" stroke="gray" points="1060,-340 1190,-340 "/>
<path fill="none" stroke="gray" d="M1190,-340C1196,-340 1202,-346 1202,-352"/>
<polyline fill="none" stroke="gray" points="1202,-352 1202,-402 "/>
<path fill="none" stroke="gray" d="M1202,-402C1202,-408 1196,-414 1190,-414"/>
<polyline fill="none" stroke="gray" points="1190,-414 1060,-414 "/>
<path fill="none" stroke="gray" d="M1060,-414C1054,-414 1048,-408 1048,-402"/>
<polyline fill="none" stroke="gray" points="1048,-402 1048,-352 "/>
<path fill="none" stroke="gray" d="M1048,-352C1048,-346 1054,-340 1060,-340"/>
<text text-anchor="middle" x="1125" y="-400.1" font-family="Times Roman,serif" font-size="11.00" fill="gray">ParamConverter</text>
</g>
<g id="graph14" class="cluster"><title>cluster_ChillDev\Bundle\FileManagerBundle\Templating</title>
<polyline fill="none" stroke="gray" points="1080,-250 1170,-250 "/>
<path fill="none" stroke="gray" d="M1170,-250C1176,-250 1182,-256 1182,-262"/>
<polyline fill="none" stroke="gray" points="1182,-262 1182,-312 "/>
<path fill="none" stroke="gray" d="M1182,-312C1182,-318 1176,-324 1170,-324"/>
<polyline fill="none" stroke="gray" points="1170,-324 1080,-324 "/>
<path fill="none" stroke="gray" d="M1080,-324C1074,-324 1068,-318 1068,-312"/>
<polyline fill="none" stroke="gray" points="1068,-312 1068,-262 "/>
<path fill="none" stroke="gray" d="M1068,-262C1068,-256 1074,-250 1080,-250"/>
<text text-anchor="middle" x="1125" y="-310.1" font-family="Times Roman,serif" font-size="11.00" fill="gray">Templating</text>
</g>
<g id="graph15" class="cluster"><title>cluster_ChillDev\Bundle\FileManagerBundle\Validator</title>
<polyline fill="none" stroke="gray" points="1038,-76 1212,-76 "/>
<path fill="none" stroke="gray" d="M1212,-76C1218,-76 1224,-82 1224,-88"/>
<polyline fill="none" stroke="gray" points="1224,-88 1224,-230 "/>
<path fill="none" stroke="gray" d="M1224,-230C1224,-236 1218,-242 1212,-242"/>
<polyline fill="none" stroke="gray" points="1212,-242 1038,-242 "/>
<path fill="none" stroke="gray" d="M1038,-242C1032,-242 1026,-236 1026,-230"/>
<polyline fill="none" stroke="gray" points="1026,-230 1026,-88 "/>
<path fill="none" stroke="gray" d="M1026,-88C1026,-82 1032,-76 1038,-76"/>
<text text-anchor="middle" x="1125" y="-228.1" font-family="Times Roman,serif" font-size="11.00" fill="gray">Validator</text>
</g>
<g id="graph16" class="cluster"><title>cluster_ChillDev\Bundle\FileManagerBundle\Validator\Constraints</title>
<polyline fill="none" stroke="gray" points="1046,-84 1204,-84 "/>
<path fill="none" stroke="gray" d="M1204,-84C1210,-84 1216,-90 1216,-96"/>
<polyline fill="none" stroke="gray" points="1216,-96 1216,-200 "/>
<path fill="none" stroke="gray" d="M1216,-200C1216,-206 1210,-212 1204,-212"/>
<polyline fill="none" stroke="gray" points="1204,-212 1046,-212 "/>
<path fill="none" stroke="gray" d="M1046,-212C1040,-212 1034,-206 1034,-200"/>
<polyline fill="none" stroke="gray" points="1034,-200 1034,-96 "/>
<path fill="none" stroke="gray" d="M1034,-96C1034,-90 1040,-84 1046,-84"/>
<text text-anchor="middle" x="1125" y="-198.1" font-family="Times Roman,serif" font-size="11.00" fill="gray">Constraints</text>
</g>
<!-- \\ChillDev\\Bundle\\FileManagerBundle\\Controller\\FilesController -->
<g id="node5" class="node"><title>\\ChillDev\\Bundle\\FileManagerBundle\\Controller\\FilesController</title>
<a xlink:href="Controller.FilesController.html" xlink:title="FilesController" target="_parent">
<polygon fill="none" stroke="black" points="1184,-942 1066,-942 1066,-906 1184,-906 1184,-942"/>
<text text-anchor="middle" x="1125" y="-921.1" font-family="Courier,monospace" font-size="11.00">FilesController</text>
</a>
</g>
<!-- \\Symfony\\Bundle\\FrameworkBundle\\Controller\\Controller -->
<g id="node78" class="node"><title>\\Symfony\\Bundle\\FrameworkBundle\\Controller\\Controller</title>
<ellipse fill="none" stroke="black" cx="475" cy="-897" rx="290.121" ry="18.3848"/>
<text text-anchor="middle" x="475" y="-893.4" font-family="Times Roman,serif" font-size="14.00" fill="gray">\Symfony\Bundle\FrameworkBundle\Controller\Controller</text>
</g>
<!-- \\ChillDev\\Bundle\\FileManagerBundle\\Controller\\FilesController&#45;&gt;\\Symfony\\Bundle\\FrameworkBundle\\Controller\\Controller -->
<g id="edge66" class="edge"><title>\\ChillDev\\Bundle\\FileManagerBundle\\Controller\\FilesController&#45;&gt;\\Symfony\\Bundle\\FrameworkBundle\\Controller\\Controller</title>
<path fill="none" stroke="black" d="M1065.88,-921.544C989.098,-918.355 850.213,-912.586 726.38,-907.442"/>
<polygon fill="none" stroke="black" points="726.491,-903.944 716.354,-907.025 726.2,-910.938 726.491,-903.944"/>
</g>
<!-- \\ChillDev\\Bundle\\FileManagerBundle\\Controller\\DisksController -->
<g id="node6" class="node"><title>\\ChillDev\\Bundle\\FileManagerBundle\\Controller\\DisksController</title>
<a xlink:href="Controller.DisksController.html" xlink:title="DisksController" target="_parent">
<polygon fill="none" stroke="black" points="1184,-888 1066,-888 1066,-852 1184,-852 1184,-888"/>
<text text-anchor="middle" x="1125" y="-867.1" font-family="Courier,monospace" font-size="11.00">DisksController</text>
</a>
</g>
<!-- \\ChillDev\\Bundle\\FileManagerBundle\\Controller\\DisksController&#45;&gt;\\Symfony\\Bundle\\FrameworkBundle\\Controller\\Controller -->
<g id="edge68" class="edge"><title>\\ChillDev\\Bundle\\FileManagerBundle\\Controller\\DisksController&#45;&gt;\\Symfony\\Bundle\\FrameworkBundle\\Controller\\Controller</title>
<path fill="none" stroke="black" d="M1065.88,-872.456C989.098,-875.645 850.213,-881.414 726.38,-886.558"/>
<polygon fill="none" stroke="black" points="726.2,-883.062 716.354,-886.975 726.491,-890.056 726.2,-883.062"/>
</g>
<!-- \\ChillDev\\Bundle\\FileManagerBundle\\DependencyInjection\\ChillDevFileManagerExtension -->
<g id="node8" class="node"><title>\\ChillDev\\Bundle\\FileManagerBundle\\DependencyInjection\\ChillDevFileManagerExtension</title>
<a xlink:href="DependencyInjection.ChillDevFileManagerExtension.html" xlink:title="ChillDevFileManagerExtension" target="_parent">
<polygon fill="none" stroke="black" points="1228,-806 1022,-806 1022,-770 1228,-770 1228,-806"/>
<text text-anchor="middle" x="1125" y="-785.1" font-family="Courier,monospace" font-size="11.00">ChillDevFileManagerExtension</text>
</a>
</g>
<!-- \\Symfony\\Component\\HttpKernel\\DependencyInjection\\Extension -->
<g id="node70" class="node"><title>\\Symfony\\Component\\HttpKernel\\DependencyInjection\\Extension</title>
<ellipse fill="none" stroke="black" cx="475" cy="-788" rx="329.012" ry="18.3848"/>
<text text-anchor="middle" x="475" y="-784.4" font-family="Times Roman,serif" font-size="14.00" fill="gray">\Symfony\Component\HttpKernel\DependencyInjection\Extension</text>
</g>
<!-- \\ChillDev\\Bundle\\FileManagerBundle\\DependencyInjection\\ChillDevFileManagerExtension&#45;&gt;\\Symfony\\Component\\HttpKernel\\DependencyInjection\\Extension -->
<g id="edge58" class="edge"><title>\\ChillDev\\Bundle\\FileManagerBundle\\DependencyInjection\\ChillDevFileManagerExtension&#45;&gt;\\Symfony\\Component\\HttpKernel\\DependencyInjection\\Extension</title>
<path fill="none" stroke="black" d="M1021.65,-788C964.655,-788 890.295,-788 814.865,-788"/>
<polygon fill="none" stroke="black" points="814.7,-784.5 804.7,-788 814.7,-791.5 814.7,-784.5"/>
</g>
<!-- \\ChillDev\\Bundle\\FileManagerBundle\\DependencyInjection\\Configuration -->
<g id="node9" class="node"><title>\\ChillDev\\Bundle\\FileManagerBundle\\DependencyInjection\\Configuration</title>
<a xlink:href="DependencyInjection.Configuration.html" xlink:title="Configuration" target="_parent">
<polygon fill="none" stroke="black" points="1177,-752 1073,-752 1073,-716 1177,-716 1177,-752"/>
<text text-anchor="middle" x="1125" y="-731.1" font-family="Courier,monospace" font-size="11.00">Configuration</text>
</a>
</g>
<!-- \\Symfony\\Component\\Config\\Definition\\ConfigurationInterface -->
<g id="node85" class="node"><title>\\Symfony\\Component\\Config\\Definition\\ConfigurationInterface</title>
<ellipse fill="none" stroke="black" cx="475" cy="-734" rx="330.219" ry="18.3848"/>
<text text-anchor="middle" x="475" y="-730.4" font-family="Times Roman,serif" font-size="14.00" fill="gray">\\Symfony\\Component\\Config\\Definition\\ConfigurationInterface</text>
</g>
<!-- \\ChillDev\\Bundle\\FileManagerBundle\\DependencyInjection\\Configuration&#45;&gt;\\Symfony\\Component\\Config\\Definition\\ConfigurationInterface -->
<g id="edge74" class="edge"><title>\\ChillDev\\Bundle\\FileManagerBundle\\DependencyInjection\\Configuration&#45;&gt;\\Symfony\\Component\\Config\\Definition\\ConfigurationInterface</title>
<path fill="none" stroke="black" stroke-dasharray="1,5" d="M1072.91,-734C1014.96,-734 916.17,-734 815.401,-734"/>
<polygon fill="none" stroke="black" points="815.329,-730.5 805.329,-734 815.329,-737.5 815.329,-730.5"/>
</g>
<!-- \\ChillDev\\Bundle\\FileManagerBundle\\Filesystem\\Disk -->
<g id="node11" class="node"><title>\\ChillDev\\Bundle\\FileManagerBundle\\Filesystem\\Disk</title>
<a xlink:href="Filesystem.Disk.html" xlink:title="Disk" target="_parent">
<polygon fill="none" stroke="black" points="1152,-670 1098,-670 1098,-634 1152,-634 1152,-670"/>
<text text-anchor="middle" x="1125" y="-649.1" font-family="Courier,monospace" font-size="11.00">Disk</text>
</a>
</g>
<!-- \\ChillDev\\Bundle\\FileManagerBundle\\Filesystem\\Manager -->
<g id="node12" class="node"><title>\\ChillDev\\Bundle\\FileManagerBundle\\Filesystem\\Manager</title>
<a xlink:href="Filesystem.Manager.html" xlink:title="Manager" target="_parent">
<polygon fill="none" stroke="black" points="1157,-616 1093,-616 1093,-580 1157,-580 1157,-616"/>
<text text-anchor="middle" x="1125" y="-595.1" font-family="Courier,monospace" font-size="11.00">Manager</text>
</a>
</g>
<!-- \\ArrayObject -->
<g id="node76" class="node"><title>\\ArrayObject</title>
<ellipse fill="none" stroke="black" cx="475" cy="-598" rx="73.0388" ry="18.3848"/>
<text text-anchor="middle" x="475" y="-594.4" font-family="Times Roman,serif" font-size="14.00" fill="gray">\ArrayObject</text>
</g>
<!-- \\ChillDev\\Bundle\\FileManagerBundle\\Filesystem\\Manager&#45;&gt;\\ArrayObject -->
<g id="edge64" class="edge"><title>\\ChillDev\\Bundle\\FileManagerBundle\\Filesystem\\Manager&#45;&gt;\\ArrayObject</title>
<path fill="none" stroke="black" d="M1092.77,-598C995.704,-598 703.968,-598 558.854,-598"/>
<polygon fill="none" stroke="black" points="558.664,-594.5 548.664,-598 558.664,-601.5 558.664,-594.5"/>
</g>
<!-- \\ChillDev\\Bundle\\FileManagerBundle\\Form\\Type\\MkdirType -->
<g id="node15" class="node"><title>\\ChillDev\\Bundle\\FileManagerBundle\\Form\\Type\\MkdirType</title>
<a xlink:href="Form.Type.MkdirType.html" xlink:title="MkdirType" target="_parent">
<polygon fill="none" stroke="black" points="1163,-504 1087,-504 1087,-468 1163,-468 1163,-504"/>
<text text-anchor="middle" x="1125" y="-483.1" font-family="Courier,monospace" font-size="11.00">MkdirType</text>
</a>
</g>
<!-- \\Symfony\\Component\\Form\\AbstractType -->
<g id="node83" class="node"><title>\\Symfony\\Component\\Form\\AbstractType</title>
<ellipse fill="none" stroke="black" cx="475" cy="-486" rx="210.217" ry="18.3848"/>
<text text-anchor="middle" x="475" y="-482.4" font-family="Times Roman,serif" font-size="14.00" fill="gray">\Symfony\Component\Form\AbstractType</text>
</g>
<!-- \\ChillDev\\Bundle\\FileManagerBundle\\Form\\Type\\MkdirType&#45;&gt;\\Symfony\\Component\\Form\\AbstractType -->
<g id="edge72" class="edge"><title>\\ChillDev\\Bundle\\FileManagerBundle\\Form\\Type\\MkdirType&#45;&gt;\\Symfony\\Component\\Form\\AbstractType</title>
<path fill="none" stroke="black" d="M1086.29,-486C1010.69,-486 838.353,-486 695.873,-486"/>
<polygon fill="none" stroke="black" points="695.668,-482.5 685.668,-486 695.668,-489.5 695.668,-482.5"/>
</g>
<!-- \\ChillDev\\Bundle\\FileManagerBundle\\Request\\ParamConverter\\DiskParamConverter -->
<g id="node19" class="node"><title>\\ChillDev\\Bundle\\FileManagerBundle\\Request\\ParamConverter\\DiskParamConverter</title>
<a xlink:href="Request.ParamConverter.DiskParamConverter.html" xlink:title="DiskParamConverter" target="_parent">
<polygon fill="none" stroke="black" points="1194,-384 1056,-384 1056,-348 1194,-348 1194,-384"/>
<text text-anchor="middle" x="1125" y="-363.1" font-family="Courier,monospace" font-size="11.00">DiskParamConverter</text>
</a>
</g>
<!-- \\Sensio\\Bundle\\FrameworkExtraBundle\\Request\\ParamConverter\\ParamConverterInterface -->
<g id="node91" class="node"><title>\\Sensio\\Bundle\\FrameworkExtraBundle\\Request\\ParamConverter\\ParamConverterInterface</title>
<ellipse fill="none" stroke="black" cx="475" cy="-366" rx="473.969" ry="18.3848"/>
<text text-anchor="middle" x="475" y="-362.4" font-family="Times Roman,serif" font-size="14.00" fill="gray">\\Sensio\\Bundle\\FrameworkExtraBundle\\Request\\ParamConverter\\ParamConverterInterface</text>
</g>
<!-- \\ChillDev\\Bundle\\FileManagerBundle\\Request\\ParamConverter\\DiskParamConverter&#45;&gt;\\Sensio\\Bundle\\FrameworkExtraBundle\\Request\\ParamConverter\\ParamConverterInterface -->
<g id="edge80" class="edge"><title>\\ChillDev\\Bundle\\FileManagerBundle\\Request\\ParamConverter\\DiskParamConverter&#45;&gt;\\Sensio\\Bundle\\FrameworkExtraBundle\\Request\\ParamConverter\\ParamConverterInterface</title>
<path fill="none" stroke="black" stroke-dasharray="1,5" d="M1055.75,-366C1029.14,-366 996.319,-366 959.941,-366"/>
<polygon fill="none" stroke="black" points="959.588,-362.5 949.588,-366 959.588,-369.5 959.588,-362.5"/>
</g>
<!-- \\ChillDev\\Bundle\\FileManagerBundle\\Templating\\ConfigEngine -->
<g id="node22" class="node"><title>\\ChillDev\\Bundle\\FileManagerBundle\\Templating\\ConfigEngine</title>
<a xlink:href="Templating.ConfigEngine.html" xlink:title="ConfigEngine" target="_parent">
<polygon fill="none" stroke="black" points="1174,-294 1076,-294 1076,-258 1174,-258 1174,-294"/>
<text text-anchor="middle" x="1125" y="-273.1" font-family="Courier,monospace" font-size="11.00">ConfigEngine</text>
</a>
</g>
<!-- \\Symfony\\Bundle\\FrameworkBundle\\Templating\\EngineInterface -->
<g id="node87" class="node"><title>\\Symfony\\Bundle\\FrameworkBundle\\Templating\\EngineInterface</title>
<ellipse fill="none" stroke="black" cx="475" cy="-294" rx="338.204" ry="18.3848"/>
<text text-anchor="middle" x="475" y="-290.4" font-family="Times Roman,serif" font-size="14.00" fill="gray">\\Symfony\\Bundle\\FrameworkBundle\\Templating\\EngineInterface</text>
</g>
<!-- \\ChillDev\\Bundle\\FileManagerBundle\\Templating\\ConfigEngine&#45;&gt;\\Symfony\\Bundle\\FrameworkBundle\\Templating\\EngineInterface -->
<g id="edge76" class="edge"><title>\\ChillDev\\Bundle\\FileManagerBundle\\Templating\\ConfigEngine&#45;&gt;\\Symfony\\Bundle\\FrameworkBundle\\Templating\\EngineInterface</title>
<path fill="none" stroke="black" stroke-dasharray="1,5" d="M1075.88,-277.36C1012.79,-279.107 897.972,-282.287 785.478,-285.402"/>
<polygon fill="none" stroke="black" points="785.2,-281.908 775.3,-285.684 785.394,-288.906 785.2,-281.908"/>
</g>
<!-- \\Symfony\\Component\\Templating\\StreamingEngineInterface -->
<g id="node89" class="node"><title>\\Symfony\\Component\\Templating\\StreamingEngineInterface</title>
<ellipse fill="none" stroke="black" cx="475" cy="-240" rx="316.077" ry="18.3848"/>
<text text-anchor="middle" x="475" y="-236.4" font-family="Times Roman,serif" font-size="14.00" fill="gray">\\Symfony\\Component\\Templating\\StreamingEngineInterface</text>
</g>
<!-- \\ChillDev\\Bundle\\FileManagerBundle\\Templating\\ConfigEngine&#45;&gt;\\Symfony\\Component\\Templating\\StreamingEngineInterface -->
<g id="edge78" class="edge"><title>\\ChillDev\\Bundle\\FileManagerBundle\\Templating\\ConfigEngine&#45;&gt;\\Symfony\\Component\\Templating\\StreamingEngineInterface</title>
<path fill="none" stroke="black" stroke-dasharray="1,5" d="M1075.88,-273.279C998.916,-269.017 844.972,-260.491 712.176,-253.136"/>
<polygon fill="none" stroke="black" points="712.02,-249.622 701.842,-252.564 711.633,-256.611 712.02,-249.622"/>
</g>
<!-- \\ChillDev\\Bundle\\FileManagerBundle\\Validator\\Constraints\\FileNotExists -->
<g id="node25" class="node"><title>\\ChillDev\\Bundle\\FileManagerBundle\\Validator\\Constraints\\FileNotExists</title>
<a xlink:href="Validator.Constraints.FileNotExists.html" xlink:title="FileNotExists" target="_parent">
<polygon fill="none" stroke="black" points="1177,-182 1073,-182 1073,-146 1177,-146 1177,-182"/>
<text text-anchor="middle" x="1125" y="-161.1" font-family="Courier,monospace" font-size="11.00">FileNotExists</text>
</a>
</g>
<!-- \\Symfony\\Component\\Validator\\Constraint -->
<g id="node72" class="node"><title>\\Symfony\\Component\\Validator\\Constraint</title>
<ellipse fill="none" stroke="black" cx="475" cy="-164" rx="217.789" ry="18.3848"/>
<text text-anchor="middle" x="475" y="-160.4" font-family="Times Roman,serif" font-size="14.00" fill="gray">\Symfony\Component\Validator\Constraint</text>
</g>
<!-- \\ChillDev\\Bundle\\FileManagerBundle\\Validator\\Constraints\\FileNotExists&#45;&gt;\\Symfony\\Component\\Validator\\Constraint -->
<g id="edge60" class="edge"><title>\\ChillDev\\Bundle\\FileManagerBundle\\Validator\\Constraints\\FileNotExists&#45;&gt;\\Symfony\\Component\\Validator\\Constraint</title>
<path fill="none" stroke="black" d="M1072.91,-164C993.266,-164 836.465,-164 703.418,-164"/>
<polygon fill="none" stroke="black" points="703.069,-160.5 693.069,-164 703.069,-167.5 703.069,-160.5"/>
</g>
<!-- \\ChillDev\\Bundle\\FileManagerBundle\\Validator\\Constraints\\FileNotExistsValidator -->
<g id="node26" class="node"><title>\\ChillDev\\Bundle\\FileManagerBundle\\Validator\\Constraints\\FileNotExistsValidator</title>
<a xlink:href="Validator.Constraints.FileNotExistsValidator.html" xlink:title="FileNotExistsValidator" target="_parent">
<polygon fill="none" stroke="black" points="1207,-128 1043,-128 1043,-92 1207,-92 1207,-128"/>
<text text-anchor="middle" x="1125" y="-107.1" font-family="Courier,monospace" font-size="11.00">FileNotExistsValidator</text>
</a>
</g>
<!-- \\Symfony\\Component\\Validator\\ConstraintValidator -->
<g id="node74" class="node"><title>\\Symfony\\Component\\Validator\\ConstraintValidator</title>
<ellipse fill="none" stroke="black" cx="475" cy="-110" rx="261.129" ry="18.3848"/>
<text text-anchor="middle" x="475" y="-106.4" font-family="Times Roman,serif" font-size="14.00" fill="gray">\Symfony\Component\Validator\ConstraintValidator</text>
</g>
<!-- \\ChillDev\\Bundle\\FileManagerBundle\\Validator\\Constraints\\FileNotExistsValidator&#45;&gt;\\Symfony\\Component\\Validator\\ConstraintValidator -->
<g id="edge62" class="edge"><title>\\ChillDev\\Bundle\\FileManagerBundle\\Validator\\Constraints\\FileNotExistsValidator&#45;&gt;\\Symfony\\Component\\Validator\\ConstraintValidator</title>
<path fill="none" stroke="black" d="M1042.35,-110C967.651,-110 853.413,-110 746.974,-110"/>
<polygon fill="none" stroke="black" points="746.7,-106.5 736.7,-110 746.699,-113.5 746.7,-106.5"/>
</g>
<!-- \\ChillDev\\Bundle\\FileManagerBundle\\ChillDevFileManagerBundle -->
<g id="node28" class="node"><title>\\ChillDev\\Bundle\\FileManagerBundle\\ChillDevFileManagerBundle</title>
<a xlink:href="ChillDevFileManagerBundle.html" xlink:title="ChillDevFileManagerBundle" target="_parent">
<polygon fill="none" stroke="black" points="1217,-68 1033,-68 1033,-32 1217,-32 1217,-68"/>
<text text-anchor="middle" x="1125" y="-47.1" font-family="Courier,monospace" font-size="11.00">ChillDevFileManagerBundle</text>
</a>
</g>
<!-- \\Symfony\\Component\\HttpKernel\\Bundle\\Bundle -->
<g id="node81" class="node"><title>\\Symfony\\Component\\HttpKernel\\Bundle\\Bundle</title>
<ellipse fill="none" stroke="black" cx="475" cy="-50" rx="246.78" ry="18.3848"/>
<text text-anchor="middle" x="475" y="-46.4" font-family="Times Roman,serif" font-size="14.00" fill="gray">\Symfony\Component\HttpKernel\Bundle\Bundle</text>
</g>
<!-- \\ChillDev\\Bundle\\FileManagerBundle\\ChillDevFileManagerBundle&#45;&gt;\\Symfony\\Component\\HttpKernel\\Bundle\\Bundle -->
<g id="edge70" class="edge"><title>\\ChillDev\\Bundle\\FileManagerBundle\\ChillDevFileManagerBundle&#45;&gt;\\Symfony\\Component\\HttpKernel\\Bundle\\Bundle</title>
<path fill="none" stroke="black" d="M1032.22,-50C953.976,-50 838.151,-50 732.338,-50"/>
<polygon fill="none" stroke="black" points="732.131,-46.5001 722.131,-50 732.131,-53.5001 732.131,-46.5001"/>
</g>
</g>
</svg>
