<?xml version="1.0" encoding="UTF-8" standalone="no"?>
<!DOCTYPE svg PUBLIC "-//W3C//DTD SVG 1.1//EN"
 "http://www.w3.org/Graphics/SVG/1.1/DTD/svg11.dtd">
<!-- Generated by graphviz version 2.26.3 (20100126.1600)
 -->
<!-- Title: G Pages: 1 -->
<svg width="1260pt" height="1550pt"
 viewBox="0.00 0.00 1260.00 1550.00" xmlns="http://www.w3.org/2000/svg" xmlns:xlink="http://www.w3.org/1999/xlink">
<g id="graph1" class="graph" transform="scale(1 1) rotate(0) translate(4 1546)">
<title>G</title>
<polygon fill="white" stroke="white" points="-4,5 -4,-1546 1257,-1546 1257,5 -4,5"/>
<g id="graph2" class="cluster"><title>cluster_ChillDev</title>
<polyline fill="none" stroke="gray" points="986,-8 1232,-8 "/>
<path fill="none" stroke="gray" d="M1232,-8C1238,-8 1244,-14 1244,-20"/>
<polyline fill="none" stroke="gray" points="1244,-20 1244,-1522 "/>
<path fill="none" stroke="gray" d="M1244,-1522C1244,-1528 1238,-1534 1232,-1534"/>
<polyline fill="none" stroke="gray" points="1232,-1534 986,-1534 "/>
<path fill="none" stroke="gray" d="M986,-1534C980,-1534 974,-1528 974,-1522"/>
<polyline fill="none" stroke="gray" points="974,-1522 974,-20 "/>
<path fill="none" stroke="gray" d="M974,-20C974,-14 980,-8 986,-8"/>
<text text-anchor="middle" x="1109" y="-1520.1" font-family="Times Roman,serif" font-size="11.00" fill="gray">ChillDev</text>
</g>
<g id="graph3" class="cluster"><title>cluster_ChillDev\Bundle</title>
<polyline fill="none" stroke="gray" points="994,-16 1224,-16 "/>
<path fill="none" stroke="gray" d="M1224,-16C1230,-16 1236,-22 1236,-28"/>
<polyline fill="none" stroke="gray" points="1236,-28 1236,-1492 "/>
<path fill="none" stroke="gray" d="M1236,-1492C1236,-1498 1230,-1504 1224,-1504"/>
<polyline fill="none" stroke="gray" points="1224,-1504 994,-1504 "/>
<path fill="none" stroke="gray" d="M994,-1504C988,-1504 982,-1498 982,-1492"/>
<polyline fill="none" stroke="gray" points="982,-1492 982,-28 "/>
<path fill="none" stroke="gray" d="M982,-28C982,-22 988,-16 994,-16"/>
<text text-anchor="middle" x="1109" y="-1490.1" font-family="Times Roman,serif" font-size="11.00" fill="gray">Bundle</text>
</g>
<g id="graph4" class="cluster"><title>cluster_ChillDev\Bundle\FileManagerBundle</title>
<polyline fill="none" stroke="gray" points="1002,-24 1216,-24 "/>
<path fill="none" stroke="gray" d="M1216,-24C1222,-24 1228,-30 1228,-36"/>
<polyline fill="none" stroke="gray" points="1228,-36 1228,-1462 "/>
<path fill="none" stroke="gray" d="M1228,-1462C1228,-1468 1222,-1474 1216,-1474"/>
<polyline fill="none" stroke="gray" points="1216,-1474 1002,-1474 "/>
<path fill="none" stroke="gray" d="M1002,-1474C996,-1474 990,-1468 990,-1462"/>
<polyline fill="none" stroke="gray" points="990,-1462 990,-36 "/>
<path fill="none" stroke="gray" d="M990,-36C990,-30 996,-24 1002,-24"/>
<text text-anchor="middle" x="1109" y="-1460.1" font-family="Times Roman,serif" font-size="11.00" fill="gray">FileManagerBundle</text>
</g>
<g id="graph5" class="cluster"><title>cluster_ChillDev\Bundle\FileManagerBundle\Controller</title>
<polyline fill="none" stroke="gray" points="1054,-1316 1164,-1316 "/>
<path fill="none" stroke="gray" d="M1164,-1316C1170,-1316 1176,-1322 1176,-1328"/>
<polyline fill="none" stroke="gray" points="1176,-1328 1176,-1432 "/>
<path fill="none" stroke="gray" d="M1176,-1432C1176,-1438 1170,-1444 1164,-1444"/>
<polyline fill="none" stroke="gray" points="1164,-1444 1054,-1444 "/>
<path fill="none" stroke="gray" d="M1054,-1444C1048,-1444 1042,-1438 1042,-1432"/>
<polyline fill="none" stroke="gray" points="1042,-1432 1042,-1328 "/>
<path fill="none" stroke="gray" d="M1042,-1328C1042,-1322 1048,-1316 1054,-1316"/>
<text text-anchor="middle" x="1109" y="-1430.1" font-family="Times Roman,serif" font-size="11.00" fill="gray">Controller</text>
</g>
<g id="graph6" class="cluster"><title>cluster_ChillDev\Bundle\FileManagerBundle\DependencyInjection</title>
<polyline fill="none" stroke="gray" points="1010,-1180 1208,-1180 "/>
<path fill="none" stroke="gray" d="M1208,-1180C1214,-1180 1220,-1186 1220,-1192"/>
<polyline fill="none" stroke="gray" points="1220,-1192 1220,-1296 "/>
<path fill="none" stroke="gray" d="M1220,-1296C1220,-1302 1214,-1308 1208,-1308"/>
<polyline fill="none" stroke="gray" points="1208,-1308 1010,-1308 "/>
<path fill="none" stroke="gray" d="M1010,-1308C1004,-1308 998,-1302 998,-1296"/>
<polyline fill="none" stroke="gray" points="998,-1296 998,-1192 "/>
<path fill="none" stroke="gray" d="M998,-1192C998,-1186 1004,-1180 1010,-1180"/>
<text text-anchor="middle" x="1109" y="-1294.1" font-family="Times Roman,serif" font-size="11.00" fill="gray">DependencyInjection</text>
</g>
<g id="graph7" class="cluster"><title>cluster_ChillDev\Bundle\FileManagerBundle\Filesystem</title>
<polyline fill="none" stroke="gray" points="1071,-990 1147,-990 "/>
<path fill="none" stroke="gray" d="M1147,-990C1153,-990 1159,-996 1159,-1002"/>
<polyline fill="none" stroke="gray" points="1159,-1002 1159,-1160 "/>
<path fill="none" stroke="gray" d="M1159,-1160C1159,-1166 1153,-1172 1147,-1172"/>
<polyline fill="none" stroke="gray" points="1147,-1172 1071,-1172 "/>
<path fill="none" stroke="gray" d="M1071,-1172C1065,-1172 1059,-1166 1059,-1160"/>
<polyline fill="none" stroke="gray" points="1059,-1160 1059,-1002 "/>
<path fill="none" stroke="gray" d="M1059,-1002C1059,-996 1065,-990 1071,-990"/>
<text text-anchor="middle" x="1109" y="-1158.1" font-family="Times Roman,serif" font-size="11.00" fill="gray">Filesystem</text>
</g>
<g id="graph8" class="cluster"><title>cluster_ChillDev\Bundle\FileManagerBundle\Form</title>
<polyline fill="none" stroke="gray" points="1029,-680 1189,-680 "/>
<path fill="none" stroke="gray" d="M1189,-680C1195,-680 1201,-686 1201,-692"/>
<polyline fill="none" stroke="gray" points="1201,-692 1201,-970 "/>
<path fill="none" stroke="gray" d="M1201,-970C1201,-976 1195,-982 1189,-982"/>
<polyline fill="none" stroke="gray" points="1189,-982 1029,-982 "/>
<path fill="none" stroke="gray" d="M1029,-982C1023,-982 1017,-976 1017,-970"/>
<polyline fill="none" stroke="gray" points="1017,-970 1017,-692 "/>
<path fill="none" stroke="gray" d="M1017,-692C1017,-686 1023,-680 1029,-680"/>
<text text-anchor="middle" x="1109" y="-968.1" font-family="Times Roman,serif" font-size="11.00" fill="gray">Form</text>
</g>
<g id="graph9" class="cluster"><title>cluster_ChillDev\Bundle\FileManagerBundle\Form\EventListener</title>
<polyline fill="none" stroke="gray" points="1037,-878 1181,-878 "/>
<path fill="none" stroke="gray" d="M1181,-878C1187,-878 1193,-884 1193,-890"/>
<polyline fill="none" stroke="gray" points="1193,-890 1193,-940 "/>
<path fill="none" stroke="gray" d="M1193,-940C1193,-946 1187,-952 1181,-952"/>
<polyline fill="none" stroke="gray" points="1181,-952 1037,-952 "/>
<path fill="none" stroke="gray" d="M1037,-952C1031,-952 1025,-946 1025,-940"/>
<polyline fill="none" stroke="gray" points="1025,-940 1025,-890 "/>
<path fill="none" stroke="gray" d="M1025,-890C1025,-884 1031,-878 1037,-878"/>
<text text-anchor="middle" x="1109" y="-938.1" font-family="Times Roman,serif" font-size="11.00" fill="gray">EventListener</text>
</g>
<g id="graph10" class="cluster"><title>cluster_ChillDev\Bundle\FileManagerBundle\Form\Type</title>
<polyline fill="none" stroke="gray" points="1071,-688 1147,-688 "/>
<path fill="none" stroke="gray" d="M1147,-688C1153,-688 1159,-694 1159,-700"/>
<polyline fill="none" stroke="gray" points="1159,-700 1159,-858 "/>
<path fill="none" stroke="gray" d="M1159,-858C1159,-864 1153,-870 1147,-870"/>
<polyline fill="none" stroke="gray" points="1147,-870 1071,-870 "/>
<path fill="none" stroke="gray" d="M1071,-870C1065,-870 1059,-864 1059,-858"/>
<polyline fill="none" stroke="gray" points="1059,-858 1059,-700 "/>
<path fill="none" stroke="gray" d="M1059,-700C1059,-694 1065,-688 1071,-688"/>
<text text-anchor="middle" x="1109" y="-856.1" font-family="Times Roman,serif" font-size="11.00" fill="gray">Type</text>
</g>
<g id="graph13" class="cluster"><title>cluster_ChillDev\Bundle\FileManagerBundle\Request</title>
<polyline fill="none" stroke="gray" points="1036,-560 1182,-560 "/>
<path fill="none" stroke="gray" d="M1182,-560C1188,-560 1194,-566 1194,-572"/>
<polyline fill="none" stroke="gray" points="1194,-572 1194,-660 "/>
<path fill="none" stroke="gray" d="M1194,-660C1194,-666 1188,-672 1182,-672"/>
<polyline fill="none" stroke="gray" points="1182,-672 1036,-672 "/>
<path fill="none" stroke="gray" d="M1036,-672C1030,-672 1024,-666 1024,-660"/>
<polyline fill="none" stroke="gray" points="1024,-660 1024,-572 "/>
<path fill="none" stroke="gray" d="M1024,-572C1024,-566 1030,-560 1036,-560"/>
<text text-anchor="middle" x="1109" y="-658.1" font-family="Times Roman,serif" font-size="11.00" fill="gray">Request</text>
</g>
<g id="graph14" class="cluster"><title>cluster_ChillDev\Bundle\FileManagerBundle\Request\ParamConverter</title>
<polyline fill="none" stroke="gray" points="1044,-568 1174,-568 "/>
<path fill="none" stroke="gray" d="M1174,-568C1180,-568 1186,-574 1186,-580"/>
<polyline fill="none" stroke="gray" points="1186,-580 1186,-630 "/>
<path fill="none" stroke="gray" d="M1186,-630C1186,-636 1180,-642 1174,-642"/>
<polyline fill="none" stroke="gray" points="1174,-642 1044,-642 "/>
<path fill="none" stroke="gray" d="M1044,-642C1038,-642 1032,-636 1032,-630"/>
<polyline fill="none" stroke="gray" points="1032,-630 1032,-580 "/>
<path fill="none" stroke="gray" d="M1032,-580C1032,-574 1038,-568 1044,-568"/>
<text text-anchor="middle" x="1109" y="-628.1" font-family="Times Roman,serif" font-size="11.00" fill="gray">ParamConverter</text>
</g>
<g id="graph16" class="cluster"><title>cluster_ChillDev\Bundle\FileManagerBundle\Templating</title>
<polyline fill="none" stroke="gray" points="1069,-440 1149,-440 "/>
<path fill="none" stroke="gray" d="M1149,-440C1155,-440 1161,-446 1161,-452"/>
<polyline fill="none" stroke="gray" points="1161,-452 1161,-540 "/>
<path fill="none" stroke="gray" d="M1161,-540C1161,-546 1155,-552 1149,-552"/>
<polyline fill="none" stroke="gray" points="1149,-552 1069,-552 "/>
<path fill="none" stroke="gray" d="M1069,-552C1063,-552 1057,-546 1057,-540"/>
<polyline fill="none" stroke="gray" points="1057,-540 1057,-452 "/>
<path fill="none" stroke="gray" d="M1057,-452C1057,-446 1063,-440 1069,-440"/>
<text text-anchor="middle" x="1109" y="-538.1" font-family="Times Roman,serif" font-size="11.00" fill="gray">Templating</text>
</g>
<g id="graph17" class="cluster"><title>cluster_ChillDev\Bundle\FileManagerBundle\Templating\Helper</title>
<polyline fill="none" stroke="gray" points="1077,-448 1141,-448 "/>
<path fill="none" stroke="gray" d="M1141,-448C1147,-448 1153,-454 1153,-460"/>
<polyline fill="none" stroke="gray" points="1153,-460 1153,-510 "/>
<path fill="none" stroke="gray" d="M1153,-510C1153,-516 1147,-522 1141,-522"/>
<polyline fill="none" stroke="gray" points="1141,-522 1077,-522 "/>
<path fill="none" stroke="gray" d="M1077,-522C1071,-522 1065,-516 1065,-510"/>
<polyline fill="none" stroke="gray" points="1065,-510 1065,-460 "/>
<path fill="none" stroke="gray" d="M1065,-460C1065,-454 1071,-448 1077,-448"/>
<text text-anchor="middle" x="1109" y="-508.1" font-family="Times Roman,serif" font-size="11.00" fill="gray">Helper</text>
</g>
<g id="graph19" class="cluster"><title>cluster_ChillDev\Bundle\FileManagerBundle\Utils</title>
<polyline fill="none" stroke="gray" points="1071,-304 1147,-304 "/>
<path fill="none" stroke="gray" d="M1147,-304C1153,-304 1159,-310 1159,-316"/>
<polyline fill="none" stroke="gray" points="1159,-316 1159,-420 "/>
<path fill="none" stroke="gray" d="M1159,-420C1159,-426 1153,-432 1147,-432"/>
<polyline fill="none" stroke="gray" points="1147,-432 1071,-432 "/>
<path fill="none" stroke="gray" d="M1071,-432C1065,-432 1059,-426 1059,-420"/>
<polyline fill="none" stroke="gray" points="1059,-420 1059,-316 "/>
<path fill="none" stroke="gray" d="M1059,-316C1059,-310 1065,-304 1071,-304"/>
<text text-anchor="middle" x="1109" y="-418.1" font-family="Times Roman,serif" font-size="11.00" fill="gray">Utils</text>
</g>
<g id="graph20" class="cluster"><title>cluster_ChillDev\Bundle\FileManagerBundle\Validator</title>
<polyline fill="none" stroke="gray" points="1022,-76 1196,-76 "/>
<path fill="none" stroke="gray" d="M1196,-76C1202,-76 1208,-82 1208,-88"/>
<polyline fill="none" stroke="gray" points="1208,-88 1208,-284 "/>
<path fill="none" stroke="gray" d="M1208,-284C1208,-290 1202,-296 1196,-296"/>
<polyline fill="none" stroke="gray" points="1196,-296 1022,-296 "/>
<path fill="none" stroke="gray" d="M1022,-296C1016,-296 1010,-290 1010,-284"/>
<polyline fill="none" stroke="gray" points="1010,-284 1010,-88 "/>
<path fill="none" stroke="gray" d="M1010,-88C1010,-82 1016,-76 1022,-76"/>
<text text-anchor="middle" x="1109" y="-282.1" font-family="Times Roman,serif" font-size="11.00" fill="gray">Validator</text>
</g>
<g id="graph21" class="cluster"><title>cluster_ChillDev\Bundle\FileManagerBundle\Validator\Constraints</title>
<polyline fill="none" stroke="gray" points="1030,-84 1188,-84 "/>
<path fill="none" stroke="gray" d="M1188,-84C1194,-84 1200,-90 1200,-96"/>
<polyline fill="none" stroke="gray" points="1200,-96 1200,-254 "/>
<path fill="none" stroke="gray" d="M1200,-254C1200,-260 1194,-266 1188,-266"/>
<polyline fill="none" stroke="gray" points="1188,-266 1030,-266 "/>
<path fill="none" stroke="gray" d="M1030,-266C1024,-266 1018,-260 1018,-254"/>
<polyline fill="none" stroke="gray" points="1018,-254 1018,-96 "/>
<path fill="none" stroke="gray" d="M1018,-96C1018,-90 1024,-84 1030,-84"/>
<text text-anchor="middle" x="1109" y="-252.1" font-family="Times Roman,serif" font-size="11.00" fill="gray">Constraints</text>
</g>
<!-- \\ChillDev\\Bundle\\FileManagerBundle\\Controller\\FilesController -->
<g id="node5" class="node"><title>\\ChillDev\\Bundle\\FileManagerBundle\\Controller\\FilesController</title>
<a xlink:href="Controller.FilesController.html" xlink:title="FilesController" target="_parent">
<polygon fill="none" stroke="black" points="1168,-1414 1050,-1414 1050,-1378 1168,-1378 1168,-1414"/>
<text text-anchor="middle" x="1109" y="-1393.1" font-family="Courier,monospace" font-size="11.00">FilesController</text>
</a>
</g>
<!-- \\Symfony\\Bundle\\FrameworkBundle\\Controller\\Controller -->
<g id="node107" class="node"><title>\\Symfony\\Bundle\\FrameworkBundle\\Controller\\Controller</title>
<ellipse fill="none" stroke="black" cx="467" cy="-1369" rx="285.096" ry="18"/>
<text text-anchor="middle" x="467" y="-1364.9" font-family="Times Roman,serif" font-size="14.00" fill="gray">\Symfony\Bundle\FrameworkBundle\Controller\Controller</text>
</g>
<!-- \\ChillDev\\Bundle\\FileManagerBundle\\Controller\\FilesController&#45;&gt;\\Symfony\\Bundle\\FrameworkBundle\\Controller\\Controller -->
<g id="edge88" class="edge"><title>\\ChillDev\\Bundle\\FileManagerBundle\\Controller\\FilesController&#45;&gt;\\Symfony\\Bundle\\FrameworkBundle\\Controller\\Controller</title>
<path fill="none" stroke="black" d="M1049.75,-1393.51C973.667,-1390.31 836.874,-1384.56 714.936,-1379.43"/>
<polygon fill="none" stroke="black" points="714.827,-1375.92 704.689,-1379 714.533,-1382.91 714.827,-1375.92"/>
</g>
<!-- \\ChillDev\\Bundle\\FileManagerBundle\\Controller\\DisksController -->
<g id="node6" class="node"><title>\\ChillDev\\Bundle\\FileManagerBundle\\Controller\\DisksController</title>
<a xlink:href="Controller.DisksController.html" xlink:title="DisksController" target="_parent">
<polygon fill="none" stroke="black" points="1168,-1360 1050,-1360 1050,-1324 1168,-1324 1168,-1360"/>
<text text-anchor="middle" x="1109" y="-1339.1" font-family="Courier,monospace" font-size="11.00">DisksController</text>
</a>
</g>
<!-- \\ChillDev\\Bundle\\FileManagerBundle\\Controller\\DisksController&#45;&gt;\\Symfony\\Bundle\\FrameworkBundle\\Controller\\Controller -->
<g id="edge90" class="edge"><title>\\ChillDev\\Bundle\\FileManagerBundle\\Controller\\DisksController&#45;&gt;\\Symfony\\Bundle\\FrameworkBundle\\Controller\\Controller</title>
<path fill="none" stroke="black" d="M1049.75,-1344.49C973.667,-1347.69 836.874,-1353.44 714.936,-1358.57"/>
<polygon fill="none" stroke="black" points="714.533,-1355.09 704.689,-1359 714.827,-1362.08 714.533,-1355.09"/>
</g>
<!-- \\ChillDev\\Bundle\\FileManagerBundle\\DependencyInjection\\ChillDevFileManagerExtension -->
<g id="node8" class="node"><title>\\ChillDev\\Bundle\\FileManagerBundle\\DependencyInjection\\ChillDevFileManagerExtension</title>
<a xlink:href="DependencyInjection.ChillDevFileManagerExtension.html" xlink:title="ChillDevFileManagerExtension" target="_parent">
<polygon fill="none" stroke="black" points="1212,-1278 1006,-1278 1006,-1242 1212,-1242 1212,-1278"/>
<text text-anchor="middle" x="1109" y="-1257.1" font-family="Courier,monospace" font-size="11.00">ChillDevFileManagerExtension</text>
</a>
</g>
<!-- \\Symfony\\Component\\HttpKernel\\DependencyInjection\\Extension -->
<g id="node97" class="node"><title>\\Symfony\\Component\\HttpKernel\\DependencyInjection\\Extension</title>
<ellipse fill="none" stroke="black" cx="467" cy="-1260" rx="323.815" ry="18"/>
<text text-anchor="middle" x="467" y="-1255.9" font-family="Times Roman,serif" font-size="14.00" fill="gray">\Symfony\Component\HttpKernel\DependencyInjection\Extension</text>
</g>
<!-- \\ChillDev\\Bundle\\FileManagerBundle\\DependencyInjection\\ChillDevFileManagerExtension&#45;&gt;\\Symfony\\Component\\HttpKernel\\DependencyInjection\\Extension -->
<g id="edge78" class="edge"><title>\\ChillDev\\Bundle\\FileManagerBundle\\DependencyInjection\\ChillDevFileManagerExtension&#45;&gt;\\Symfony\\Component\\HttpKernel\\DependencyInjection\\Extension</title>
<path fill="none" stroke="black" d="M1005.85,-1260C949.371,-1260 875.854,-1260 801.375,-1260"/>
<polygon fill="none" stroke="black" points="801.339,-1256.5 791.339,-1260 801.339,-1263.5 801.339,-1256.5"/>
</g>
<!-- \\ChillDev\\Bundle\\FileManagerBundle\\DependencyInjection\\Configuration -->
<g id="node9" class="node"><title>\\ChillDev\\Bundle\\FileManagerBundle\\DependencyInjection\\Configuration</title>
<a xlink:href="DependencyInjection.Configuration.html" xlink:title="Configuration" target="_parent">
<polygon fill="none" stroke="black" points="1161,-1224 1057,-1224 1057,-1188 1161,-1188 1161,-1224"/>
<text text-anchor="middle" x="1109" y="-1203.1" font-family="Courier,monospace" font-size="11.00">Configuration</text>
</a>
</g>
<!-- \\Symfony\\Component\\Config\\Definition\\ConfigurationInterface -->
<g id="node118" class="node"><title>\\Symfony\\Component\\Config\\Definition\\ConfigurationInterface</title>
<ellipse fill="none" stroke="black" cx="467" cy="-1206" rx="324.01" ry="18"/>
<text text-anchor="middle" x="467" y="-1201.9" font-family="Times Roman,serif" font-size="14.00" fill="gray">\\Symfony\\Component\\Config\\Definition\\ConfigurationInterface</text>
</g>
<!-- \\ChillDev\\Bundle\\FileManagerBundle\\DependencyInjection\\Configuration&#45;&gt;\\Symfony\\Component\\Config\\Definition\\ConfigurationInterface -->
<g id="edge102" class="edge"><title>\\ChillDev\\Bundle\\FileManagerBundle\\DependencyInjection\\Configuration&#45;&gt;\\Symfony\\Component\\Config\\Definition\\ConfigurationInterface</title>
<path fill="none" stroke="black" stroke-dasharray="1,5" d="M1056.73,-1206C999.139,-1206 901.402,-1206 801.883,-1206"/>
<polygon fill="none" stroke="black" points="801.625,-1202.5 791.625,-1206 801.625,-1209.5 801.625,-1202.5"/>
</g>
<!-- \\ChillDev\\Bundle\\FileManagerBundle\\Filesystem\\Disk -->
<g id="node11" class="node"><title>\\ChillDev\\Bundle\\FileManagerBundle\\Filesystem\\Disk</title>
<a xlink:href="Filesystem.Disk.html" xlink:title="Disk" target="_parent">
<polygon fill="none" stroke="black" points="1136,-1142 1082,-1142 1082,-1106 1136,-1106 1136,-1142"/>
<text text-anchor="middle" x="1109" y="-1121.1" font-family="Courier,monospace" font-size="11.00">Disk</text>
</a>
</g>
<!-- \\ChillDev\\Bundle\\FileManagerBundle\\Filesystem\\Filesystem -->
<g id="node12" class="node"><title>\\ChillDev\\Bundle\\FileManagerBundle\\Filesystem\\Filesystem</title>
<a xlink:href="Filesystem.Filesystem.html" xlink:title="Filesystem" target="_parent">
<polygon fill="none" stroke="black" points="1151,-1088 1067,-1088 1067,-1052 1151,-1052 1151,-1088"/>
<text text-anchor="middle" x="1109" y="-1067.1" font-family="Courier,monospace" font-size="11.00">Filesystem</text>
</a>
</g>
<!-- \\ChillDev\\Bundle\\FileManagerBundle\\Filesystem\\Manager -->
<g id="node13" class="node"><title>\\ChillDev\\Bundle\\FileManagerBundle\\Filesystem\\Manager</title>
<a xlink:href="Filesystem.Manager.html" xlink:title="Manager" target="_parent">
<polygon fill="none" stroke="black" points="1141,-1034 1077,-1034 1077,-998 1141,-998 1141,-1034"/>
<text text-anchor="middle" x="1109" y="-1013.1" font-family="Courier,monospace" font-size="11.00">Manager</text>
</a>
</g>
<!-- \\ArrayObject -->
<g id="node105" class="node"><title>\\ArrayObject</title>
<ellipse fill="none" stroke="black" cx="467" cy="-1016" rx="71.7694" ry="18"/>
<text text-anchor="middle" x="467" y="-1011.9" font-family="Times Roman,serif" font-size="14.00" fill="gray">\ArrayObject</text>
</g>
<!-- \\ChillDev\\Bundle\\FileManagerBundle\\Filesystem\\Manager&#45;&gt;\\ArrayObject -->
<g id="edge86" class="edge"><title>\\ChillDev\\Bundle\\FileManagerBundle\\Filesystem\\Manager&#45;&gt;\\ArrayObject</title>
<path fill="none" stroke="black" d="M1076.72,-1016C980.378,-1016 692.703,-1016 549.652,-1016"/>
<polygon fill="none" stroke="black" points="549.607,-1012.5 539.607,-1016 549.607,-1019.5 549.607,-1012.5"/>
</g>
<!-- \\ChillDev\\Bundle\\FileManagerBundle\\Form\\EventListener\\UploadNameSubscriber -->
<g id="node16" class="node"><title>\\ChillDev\\Bundle\\FileManagerBundle\\Form\\EventListener\\UploadNameSubscriber</title>
<a xlink:href="Form.EventListener.UploadNameSubscriber.html" xlink:title="UploadNameSubscriber" target="_parent">
<polygon fill="none" stroke="black" points="1185,-922 1033,-922 1033,-886 1185,-886 1185,-922"/>
<text text-anchor="middle" x="1109" y="-901.1" font-family="Courier,monospace" font-size="11.00">UploadNameSubscriber</text>
</a>
</g>
<!-- \\Symfony\\Component\\EventDispatcher\\EventSubscriberInterface -->
<g id="node122" class="node"><title>\\Symfony\\Component\\EventDispatcher\\EventSubscriberInterface</title>
<ellipse fill="none" stroke="black" cx="467" cy="-904" rx="334.238" ry="18"/>
<text text-anchor="middle" x="467" y="-899.9" font-family="Times Roman,serif" font-size="14.00" fill="gray">\\Symfony\\Component\\EventDispatcher\\EventSubscriberInterface</text>
</g>
<!-- \\ChillDev\\Bundle\\FileManagerBundle\\Form\\EventListener\\UploadNameSubscriber&#45;&gt;\\Symfony\\Component\\EventDispatcher\\EventSubscriberInterface -->
<g id="edge106" class="edge"><title>\\ChillDev\\Bundle\\FileManagerBundle\\Form\\EventListener\\UploadNameSubscriber&#45;&gt;\\Symfony\\Component\\EventDispatcher\\EventSubscriberInterface</title>
<path fill="none" stroke="black" stroke-dasharray="1,5" d="M1032.83,-904C976.34,-904 894.937,-904 811.409,-904"/>
<polygon fill="none" stroke="black" points="811.214,-900.5 801.214,-904 811.214,-907.5 811.214,-900.5"/>
</g>
<!-- \\ChillDev\\Bundle\\FileManagerBundle\\Form\\Type\\RenameType -->
<g id="node18" class="node"><title>\\ChillDev\\Bundle\\FileManagerBundle\\Form\\Type\\RenameType</title>
<a xlink:href="Form.Type.RenameType.html" xlink:title="RenameType" target="_parent">
<polygon fill="none" stroke="black" points="1151,-840 1067,-840 1067,-804 1151,-804 1151,-840"/>
<text text-anchor="middle" x="1109" y="-819.1" font-family="Courier,monospace" font-size="11.00">RenameType</text>
</a>
</g>
<!-- \\Symfony\\Component\\Form\\AbstractType -->
<g id="node114" class="node"><title>\\Symfony\\Component\\Form\\AbstractType</title>
<ellipse fill="none" stroke="black" cx="467" cy="-768" rx="207.075" ry="18"/>
<text text-anchor="middle" x="467" y="-763.9" font-family="Times Roman,serif" font-size="14.00" fill="gray">\Symfony\Component\Form\AbstractType</text>
</g>
<!-- \\ChillDev\\Bundle\\FileManagerBundle\\Form\\Type\\RenameType&#45;&gt;\\Symfony\\Component\\Form\\AbstractType -->
<g id="edge96" class="edge"><title>\\ChillDev\\Bundle\\FileManagerBundle\\Form\\Type\\RenameType&#45;&gt;\\Symfony\\Component\\Form\\AbstractType</title>
<path fill="none" stroke="black" d="M1066.88,-818.457C979.001,-811.065 772.179,-793.669 626.041,-781.377"/>
<polygon fill="none" stroke="black" points="626.324,-777.889 616.066,-780.538 625.737,-784.864 626.324,-777.889"/>
</g>
<!-- \\ChillDev\\Bundle\\FileManagerBundle\\Form\\Type\\UploadType -->
<g id="node19" class="node"><title>\\ChillDev\\Bundle\\FileManagerBundle\\Form\\Type\\UploadType</title>
<a xlink:href="Form.Type.UploadType.html" xlink:title="UploadType" target="_parent">
<polygon fill="none" stroke="black" points="1151,-786 1067,-786 1067,-750 1151,-750 1151,-786"/>
<text text-anchor="middle" x="1109" y="-765.1" font-family="Courier,monospace" font-size="11.00">UploadType</text>
</a>
</g>
<!-- \\ChillDev\\Bundle\\FileManagerBundle\\Form\\Type\\UploadType&#45;&gt;\\Symfony\\Component\\Form\\AbstractType -->
<g id="edge98" class="edge"><title>\\ChillDev\\Bundle\\FileManagerBundle\\Form\\Type\\UploadType&#45;&gt;\\Symfony\\Component\\Form\\AbstractType</title>
<path fill="none" stroke="black" d="M1066.88,-768C990.198,-768 822.956,-768 684.49,-768"/>
<polygon fill="none" stroke="black" points="684.151,-764.5 674.151,-768 684.151,-771.5 684.151,-764.5"/>
</g>
<!-- \\ChillDev\\Bundle\\FileManagerBundle\\Form\\Type\\MkdirType -->
<g id="node20" class="node"><title>\\ChillDev\\Bundle\\FileManagerBundle\\Form\\Type\\MkdirType</title>
<a xlink:href="Form.Type.MkdirType.html" xlink:title="MkdirType" target="_parent">
<polygon fill="none" stroke="black" points="1147,-732 1071,-732 1071,-696 1147,-696 1147,-732"/>
<text text-anchor="middle" x="1109" y="-711.1" font-family="Courier,monospace" font-size="11.00">MkdirType</text>
</a>
</g>
<!-- \\ChillDev\\Bundle\\FileManagerBundle\\Form\\Type\\MkdirType&#45;&gt;\\Symfony\\Component\\Form\\AbstractType -->
<g id="edge100" class="edge"><title>\\ChillDev\\Bundle\\FileManagerBundle\\Form\\Type\\MkdirType&#45;&gt;\\Symfony\\Component\\Form\\AbstractType</title>
<path fill="none" stroke="black" d="M1070.29,-717.256C984.49,-724.473 774.259,-742.156 626.205,-754.609"/>
<polygon fill="none" stroke="black" points="625.771,-751.133 616.1,-755.459 626.358,-758.108 625.771,-751.133"/>
</g>
<!-- \\ChillDev\\Bundle\\FileManagerBundle\\Request\\ParamConverter\\DiskParamConverter -->
<g id="node25" class="node"><title>\\ChillDev\\Bundle\\FileManagerBundle\\Request\\ParamConverter\\DiskParamConverter</title>
<a xlink:href="Request.ParamConverter.DiskParamConverter.html" xlink:title="DiskParamConverter" target="_parent">
<polygon fill="none" stroke="black" points="1178,-612 1040,-612 1040,-576 1178,-576 1178,-612"/>
<text text-anchor="middle" x="1109" y="-591.1" font-family="Courier,monospace" font-size="11.00">DiskParamConverter</text>
</a>
</g>
<!-- \\Sensio\\Bundle\\FrameworkExtraBundle\\Request\\ParamConverter\\ParamConverterInterface -->
<g id="node120" class="node"><title>\\Sensio\\Bundle\\FrameworkExtraBundle\\Request\\ParamConverter\\ParamConverterInterface</title>
<ellipse fill="none" stroke="black" cx="467" cy="-594" rx="465.766" ry="18"/>
<text text-anchor="middle" x="467" y="-589.9" font-family="Times Roman,serif" font-size="14.00" fill="gray">\\Sensio\\Bundle\\FrameworkExtraBundle\\Request\\ParamConverter\\ParamConverterInterface</text>
</g>
<!-- \\ChillDev\\Bundle\\FileManagerBundle\\Request\\ParamConverter\\DiskParamConverter&#45;&gt;\\Sensio\\Bundle\\FrameworkExtraBundle\\Request\\ParamConverter\\ParamConverterInterface -->
<g id="edge104" class="edge"><title>\\ChillDev\\Bundle\\FileManagerBundle\\Request\\ParamConverter\\DiskParamConverter&#45;&gt;\\Sensio\\Bundle\\FrameworkExtraBundle\\Request\\ParamConverter\\ParamConverterInterface</title>
<path fill="none" stroke="black" stroke-dasharray="1,5" d="M1039.99,-594C1013.35,-594 980.475,-594 944.061,-594"/>
<polygon fill="none" stroke="black" points="943.698,-590.5 933.698,-594 943.698,-597.5 943.698,-590.5"/>
</g>
<!-- \\ChillDev\\Bundle\\FileManagerBundle\\Templating\\Helper\\Filesize -->
<g id="node29" class="node"><title>\\ChillDev\\Bundle\\FileManagerBundle\\Templating\\Helper\\Filesize</title>
<a xlink:href="Templating.Helper.Filesize.html" xlink:title="Filesize" target="_parent">
<polygon fill="none" stroke="black" points="1144,-492 1074,-492 1074,-456 1144,-456 1144,-492"/>
<text text-anchor="middle" x="1109" y="-471.1" font-family="Courier,monospace" font-size="11.00">Filesize</text>
</a>
</g>
<!-- \\Symfony\\Component\\Templating\\Helper\\Helper -->
<g id="node110" class="node"><title>\\Symfony\\Component\\Templating\\Helper\\Helper</title>
<ellipse fill="none" stroke="black" cx="467" cy="-474" rx="239.04" ry="18"/>
<text text-anchor="middle" x="467" y="-469.9" font-family="Times Roman,serif" font-size="14.00" fill="gray">\Symfony\Component\Templating\Helper\Helper</text>
</g>
<!-- \\ChillDev\\Bundle\\FileManagerBundle\\Templating\\Helper\\Filesize&#45;&gt;\\Symfony\\Component\\Templating\\Helper\\Helper -->
<g id="edge92" class="edge"><title>\\ChillDev\\Bundle\\FileManagerBundle\\Templating\\Helper\\Filesize&#45;&gt;\\Symfony\\Component\\Templating\\Helper\\Helper</title>
<path fill="none" stroke="black" d="M1073.11,-474C1004.97,-474 851.557,-474 716.134,-474"/>
<polygon fill="none" stroke="black" points="716.003,-470.5 706.003,-474 716.003,-477.5 716.003,-470.5"/>
</g>
<!-- \\ChillDev\\Bundle\\FileManagerBundle\\Utils\\Path -->
<g id="node32" class="node"><title>\\ChillDev\\Bundle\\FileManagerBundle\\Utils\\Path</title>
<a xlink:href="Utils.Path.html" xlink:title="Path" target="_parent">
<polygon fill="none" stroke="black" points="1136,-402 1082,-402 1082,-366 1136,-366 1136,-402"/>
<text text-anchor="middle" x="1109" y="-381.1" font-family="Courier,monospace" font-size="11.00">Path</text>
</a>
</g>
<!-- \\ChillDev\\Bundle\\FileManagerBundle\\Utils\\Controller -->
<g id="node33" class="node"><title>\\ChillDev\\Bundle\\FileManagerBundle\\Utils\\Controller</title>
<a xlink:href="Utils.Controller.html" xlink:title="Controller" target="_parent">
<polygon fill="none" stroke="black" points="1151,-348 1067,-348 1067,-312 1151,-312 1151,-348"/>
<text text-anchor="middle" x="1109" y="-327.1" font-family="Courier,monospace" font-size="11.00">Controller</text>
</a>
</g>
<!-- \\ChillDev\\Bundle\\FileManagerBundle\\Validator\\Constraints\\FileNotExists -->
<g id="node36" class="node"><title>\\ChillDev\\Bundle\\FileManagerBundle\\Validator\\Constraints\\FileNotExists</title>
<a xlink:href="Validator.Constraints.FileNotExists.html" xlink:title="FileNotExists" target="_parent">
<polygon fill="none" stroke="black" points="1161,-236 1057,-236 1057,-200 1161,-200 1161,-236"/>
<text text-anchor="middle" x="1109" y="-215.1" font-family="Courier,monospace" font-size="11.00">FileNotExists</text>
</a>
</g>
<!-- \\Symfony\\Component\\Validator\\Constraint -->
<g id="node99" class="node"><title>\\Symfony\\Component\\Validator\\Constraint</title>
<ellipse fill="none" stroke="black" cx="467" cy="-218" rx="214.024" ry="18"/>
<text text-anchor="middle" x="467" y="-213.9" font-family="Times Roman,serif" font-size="14.00" fill="gray">\Symfony\Component\Validator\Constraint</text>
</g>
<!-- \\ChillDev\\Bundle\\FileManagerBundle\\Validator\\Constraints\\FileNotExists&#45;&gt;\\Symfony\\Component\\Validator\\Constraint -->
<g id="edge80" class="edge"><title>\\ChillDev\\Bundle\\FileManagerBundle\\Validator\\Constraints\\FileNotExists&#45;&gt;\\Symfony\\Component\\Validator\\Constraint</title>
<path fill="none" stroke="black" d="M1056.73,-218C977.547,-218 822.481,-218 691.227,-218"/>
<polygon fill="none" stroke="black" points="691.019,-214.5 681.019,-218 691.019,-221.5 691.019,-214.5"/>
</g>
<!-- \\ChillDev\\Bundle\\FileManagerBundle\\Validator\\Constraints\\Filename -->
<g id="node37" class="node"><title>\\ChillDev\\Bundle\\FileManagerBundle\\Validator\\Constraints\\Filename</title>
<a xlink:href="Validator.Constraints.Filename.html" xlink:title="Filename" target="_parent">
<polygon fill="none" stroke="black" points="1144,-182 1074,-182 1074,-146 1144,-146 1144,-182"/>
<text text-anchor="middle" x="1109" y="-161.1" font-family="Courier,monospace" font-size="11.00">Filename</text>
</a>
</g>
<!-- \\Symfony\\Component\\Validator\\Constraints\\Regex -->
<g id="node101" class="node"><title>\\Symfony\\Component\\Validator\\Constraints\\Regex</title>
<ellipse fill="none" stroke="black" cx="467" cy="-164" rx="251.047" ry="18"/>
<text text-anchor="middle" x="467" y="-159.9" font-family="Times Roman,serif" font-size="14.00" fill="gray">\Symfony\Component\Validator\Constraints\Regex</text>
</g>
<!-- \\ChillDev\\Bundle\\FileManagerBundle\\Validator\\Constraints\\Filename&#45;&gt;\\Symfony\\Component\\Validator\\Constraints\\Regex -->
<g id="edge82" class="edge"><title>\\ChillDev\\Bundle\\FileManagerBundle\\Validator\\Constraints\\Filename&#45;&gt;\\Symfony\\Component\\Validator\\Constraints\\Regex</title>
<path fill="none" stroke="black" d="M1073.11,-164C1007.09,-164 861.052,-164 728.866,-164"/>
<polygon fill="none" stroke="black" points="728.565,-160.5 718.565,-164 728.565,-167.5 728.565,-160.5"/>
</g>
<!-- \\ChillDev\\Bundle\\FileManagerBundle\\Validator\\Constraints\\FileNotExistsValidator -->
<g id="node38" class="node"><title>\\ChillDev\\Bundle\\FileManagerBundle\\Validator\\Constraints\\FileNotExistsValidator</title>
<a xlink:href="Validator.Constraints.FileNotExistsValidator.html" xlink:title="FileNotExistsValidator" target="_parent">
<polygon fill="none" stroke="black" points="1191,-128 1027,-128 1027,-92 1191,-92 1191,-128"/>
<text text-anchor="middle" x="1109" y="-107.1" font-family="Courier,monospace" font-size="11.00">FileNotExistsValidator</text>
</a>
</g>
<!-- \\Symfony\\Component\\Validator\\ConstraintValidator -->
<g id="node103" class="node"><title>\\Symfony\\Component\\Validator\\ConstraintValidator</title>
<ellipse fill="none" stroke="black" cx="467" cy="-110" rx="257.106" ry="18"/>
<text text-anchor="middle" x="467" y="-105.9" font-family="Times Roman,serif" font-size="14.00" fill="gray">\Symfony\Component\Validator\ConstraintValidator</text>
</g>
<!-- \\ChillDev\\Bundle\\FileManagerBundle\\Validator\\Constraints\\FileNotExistsValidator&#45;&gt;\\Symfony\\Component\\Validator\\ConstraintValidator -->
<g id="edge84" class="edge"><title>\\ChillDev\\Bundle\\FileManagerBundle\\Validator\\Constraints\\FileNotExistsValidator&#45;&gt;\\Symfony\\Component\\Validator\\ConstraintValidator</title>
<path fill="none" stroke="black" d="M1026.38,-110C952.321,-110 839.47,-110 734.479,-110"/>
<polygon fill="none" stroke="black" points="734.345,-106.5 724.345,-110 734.345,-113.5 734.345,-106.5"/>
</g>
<!-- \\ChillDev\\Bundle\\FileManagerBundle\\ChillDevFileManagerBundle -->
<g id="node40" class="node"><title>\\ChillDev\\Bundle\\FileManagerBundle\\ChillDevFileManagerBundle</title>
<a xlink:href="ChillDevFileManagerBundle.html" xlink:title="ChillDevFileManagerBundle" target="_parent">
<polygon fill="none" stroke="black" points="1201,-68 1017,-68 1017,-32 1201,-32 1201,-68"/>
<text text-anchor="middle" x="1109" y="-47.1" font-family="Courier,monospace" font-size="11.00">ChillDevFileManagerBundle</text>
</a>
</g>
<!-- \\Symfony\\Component\\HttpKernel\\Bundle\\Bundle -->
<g id="node112" class="node"><title>\\Symfony\\Component\\HttpKernel\\Bundle\\Bundle</title>
<ellipse fill="none" stroke="black" cx="467" cy="-50" rx="242.014" ry="18"/>
<text text-anchor="middle" x="467" y="-45.9" font-family="Times Roman,serif" font-size="14.00" fill="gray">\Symfony\Component\HttpKernel\Bundle\Bundle</text>
</g>
<!-- \\ChillDev\\Bundle\\FileManagerBundle\\ChillDevFileManagerBundle&#45;&gt;\\Symfony\\Component\\HttpKernel\\Bundle\\Bundle -->
<g id="edge94" class="edge"><title>\\ChillDev\\Bundle\\FileManagerBundle\\ChillDevFileManagerBundle&#45;&gt;\\Symfony\\Component\\HttpKernel\\Bundle\\Bundle</title>
<path fill="none" stroke="black" d="M1016.33,-50C938.71,-50 824.154,-50 719.711,-50"/>
<polygon fill="none" stroke="black" points="719.637,-46.5001 709.637,-50 719.637,-53.5001 719.637,-46.5001"/>
</g>
</g>
</svg>
